<svg width="67" height="66" viewBox="0 0 67 66" fill="none" xmlns="http://www.w3.org/2000/svg">
<path fill-rule="evenodd" clip-rule="evenodd" d="M0 10C0 4.47715 4.47715 0 10 0H57C62.5228 0 67 4.47715 67 10V56C67 61.5228 62.5228 66 57 66H10C4.47715 66 0 61.5229 0 56V10ZM49.6759 19.0385H44.2996V24.2952H49.6759V19.0385ZM26.0431 19.8287H30.9381L41.7712 47.8907H36.0738L33.4257 40.895H23.4752L20.8672 47.8907H15.1698L26.0431 19.8287ZM28.4906 26.0339L24.398 37.0611H32.4226L28.4906 26.0339ZM44.2996 27.1803H49.6759V47.8909H44.2996V27.1803Z" fill="#181A26"/>
</svg>
