<svg width="271" height="200" viewBox="0 0 271 200" fill="none" xmlns="http://www.w3.org/2000/svg">
<rect width="271" height="200" rx="10" fill="white"/>
<path d="M35.4375 81.6719L53.625 71.1719C56.375 69.6094 59.75 69.6094 62.5 71.1719L80.6875 81.6719C83.4375 83.2344 85.125 86.1719 85.125 89.3594V110.359C85.125 113.547 83.4375 116.422 80.6875 118.047L62.5 128.547C59.75 130.109 56.375 130.109 53.625 128.547L35.4375 118.047C32.6875 116.484 31 113.547 31 110.359V89.3594C31 86.1719 32.6875 83.2344 35.4375 81.6719Z" fill="#01F0D1"/>
<path d="M74.25 92.4219H59.0625V91.8594C59.0625 91.2969 59.5 90.8594 60.0625 90.8594H74.25V92.4219Z" fill="white"/>
<path d="M67.4375 100.922H59.0625V99.3595H68.5V99.8595C68.5 100.484 68.0625 100.922 67.4375 100.922Z" fill="white"/>
<path d="M74.25 109.422H60.125C59.5625 109.422 59.0625 108.922 59.0625 108.359V107.859H74.1875V109.422H74.25Z" fill="white"/>
<path d="M40.3749 103.672C40.6874 103.984 41.1249 104.047 41.4999 103.734L54.5624 92.3593C54.8749 92.1093 55.3124 92.2968 55.3124 92.6718V108.797L50.7499 106.547C49.9999 106.172 49.0624 106.484 48.6249 107.234L55.3124 110.547C55.9999 110.922 56.8749 110.359 56.8749 109.609V90.8593C56.8749 89.8593 55.6874 89.2968 54.9374 89.9843L40.4374 102.547C40.1249 102.859 40.0624 103.297 40.3749 103.672Z" fill="white"/>
<path d="M47.75 108.734C47.6875 108.922 47.625 109.109 47.625 109.297C47.5625 110.172 48.25 110.859 49.125 110.922C49.75 110.922 50.3125 110.609 50.5625 110.109L47.75 108.734Z" fill="white"/>
<path d="M91.625 105.172L96.6875 93.7969C97.0625 92.9844 97.6875 92.5469 98.5625 92.5469H98.75C99.625 92.5469 100.25 93.0469 100.563 93.7969L105.625 105.172C105.75 105.422 105.813 105.609 105.813 105.797C105.813 106.672 105.125 107.297 104.313 107.297C103.563 107.297 103.063 106.859 102.813 106.172L101.813 103.922H95.4375L94.4375 106.297C94.1875 106.922 93.625 107.297 93 107.297C92.1875 107.297 91.5625 106.609 91.5625 105.797C91.4375 105.609 91.5 105.359 91.625 105.172ZM100.563 101.172L98.5625 96.4219L96.5625 101.172H100.563Z" fill="#2A303A"/>
<path d="M108.062 93.6094C108.062 92.7344 108.75 92.0469 109.625 92.0469C110.5 92.0469 111.187 92.7344 111.187 93.6094V105.797C111.187 106.672 110.5 107.359 109.625 107.359C108.75 107.359 108.062 106.672 108.062 105.797V93.6094V93.6094Z" fill="#2A303A"/>
<path d="M119.375 107.422C116.062 107.422 113.625 105.109 113.625 101.734V101.672C113.625 98.5468 115.875 95.9218 119.062 95.9218C122.75 95.9218 124.375 98.9843 124.375 101.234C124.375 102.172 123.75 102.734 122.938 102.734H116.75C117.062 104.172 118.063 104.922 119.438 104.922C120.313 104.922 121 104.672 121.688 104.172C121.938 103.984 122.125 103.922 122.438 103.922C123.125 103.922 123.625 104.484 123.625 105.172C123.625 105.609 123.438 105.922 123.188 106.109C122.25 106.922 121 107.422 119.375 107.422ZM121.375 100.797C121.188 99.4218 120.375 98.4218 119.062 98.4218C117.75 98.4218 116.938 99.3593 116.688 100.797H121.375Z" fill="#2A303A"/>
<path d="M126.75 97.6093C126.75 96.7343 127.437 96.0468 128.312 96.0468C129.187 96.0468 129.875 96.7343 129.875 97.6093V98.1093C130.312 97.0468 131.062 96.0468 132 96.0468C133 96.0468 133.5 96.6718 133.5 97.5468C133.5 98.3593 132.937 98.8593 132.312 98.9843C130.75 99.3593 129.812 100.547 129.812 102.797V105.734C129.812 106.609 129.125 107.297 128.25 107.297C127.375 107.297 126.688 106.609 126.688 105.734V97.6093H126.75Z" fill="#2A303A"/>
<path d="M135.937 104.047V98.7968H135.812C135.062 98.7968 134.5 98.1718 134.5 97.4843C134.5 96.7343 135.125 96.1718 135.812 96.1718H135.937V94.7968C135.937 93.9218 136.625 93.2343 137.5 93.2343C138.375 93.2343 139.062 93.9218 139.062 94.7968V96.1718H140.437C141.187 96.1718 141.75 96.7968 141.75 97.4843C141.75 98.2343 141.125 98.7968 140.437 98.7968H139.062V103.547C139.062 104.297 139.375 104.609 140.062 104.609C140.187 104.609 140.375 104.609 140.437 104.609C141.125 104.609 141.75 105.172 141.75 105.922C141.75 106.484 141.375 106.922 140.937 107.109C140.375 107.359 139.812 107.422 139.125 107.422C137.187 107.359 135.937 106.609 135.937 104.047Z" fill="#2A303A"/>
<path d="M143.312 104.047C143.312 101.609 145.125 100.484 147.75 100.484C148.875 100.484 149.688 100.672 150.438 100.922V100.734C150.438 99.4219 149.625 98.7344 148.063 98.7344C147.188 98.7344 146.5 98.8594 145.875 99.0469C145.688 99.1094 145.563 99.1094 145.438 99.1094C144.688 99.1094 144.125 98.5469 144.125 97.8594C144.125 97.2969 144.5 96.7969 145 96.6719C146 96.2969 147.063 96.1094 148.5 96.1094C150.188 96.1094 151.438 96.5469 152.25 97.3594C153.063 98.1719 153.437 99.4219 153.437 100.859V105.797C153.437 106.672 152.75 107.297 151.938 107.297C151 107.297 150.438 106.672 150.438 105.984C149.688 106.859 148.625 107.359 147.125 107.359C145 107.422 143.312 106.234 143.312 104.047ZM150.5 103.297V102.734C149.938 102.484 149.25 102.297 148.5 102.297C147.188 102.297 146.313 102.859 146.313 103.797V103.922C146.313 104.797 147 105.234 148 105.234C149.5 105.234 150.5 104.422 150.5 103.297Z" fill="#2A303A"/>
<path d="M156.938 106.672V93.297C156.938 92.9845 157.187 92.7345 157.5 92.7345H166.813C167.063 92.7345 167.313 92.9845 167.313 93.2345C167.313 93.4845 167.063 93.7345 166.813 93.7345H158V99.422H165.875C166.125 99.422 166.375 99.672 166.375 99.922C166.375 100.172 166.125 100.422 165.875 100.422H158V106.234H166.875C167.125 106.234 167.375 106.484 167.375 106.734C167.375 106.984 167.125 107.234 166.875 107.234H157.438C157.125 107.172 156.938 106.984 156.938 106.672Z" fill="#2A303A"/>
<path d="M170.5 97.1093C170.5 96.7968 170.688 96.6093 171 96.6093C171.313 96.6093 171.5 96.7968 171.5 97.1093V98.5468C172.188 97.4843 173.125 96.4218 175 96.4218C176.812 96.4218 178 97.4843 178.563 98.6718C179.25 97.4843 180.375 96.4218 182.375 96.4218C184.875 96.4218 186.437 98.1718 186.437 100.797V106.734C186.437 107.047 186.25 107.234 185.937 107.234C185.625 107.234 185.438 107.047 185.438 106.734V100.922C185.438 98.6718 184.25 97.3593 182.313 97.3593C180.563 97.3593 179 98.7343 179 101.047V106.734C179 107.047 178.813 107.234 178.5 107.234C178.188 107.234 178 107.047 178 106.734V100.859C178 98.6718 176.813 97.3593 174.938 97.3593C173.063 97.3593 171.562 98.9843 171.562 101.109V106.734C171.562 107.047 171.375 107.234 171.063 107.234C170.75 107.234 170.563 107.047 170.563 106.734V97.1093H170.5Z" fill="#2A303A"/>
<path d="M190.125 97.1093C190.125 96.7968 190.312 96.6093 190.625 96.6093C190.937 96.6093 191.125 96.7968 191.125 97.1093V99.0468C192.063 97.6718 193.375 96.4218 195.437 96.4218C198 96.4218 200.562 98.4843 200.562 101.859V101.922C200.562 105.359 198 107.422 195.437 107.422C193.312 107.422 192 106.234 191.125 104.922V110.047C191.125 110.359 190.937 110.547 190.625 110.547C190.312 110.547 190.125 110.359 190.125 110.047V97.1093ZM199.5 101.984C199.5 99.1718 197.562 97.4218 195.375 97.4218C193.187 97.4218 191.062 99.2343 191.062 101.922V101.984C191.062 104.672 193.187 106.484 195.375 106.484C197.625 106.484 199.5 104.797 199.5 101.984Z" fill="#2A303A"/>
<path d="M203.875 92.6094C203.875 92.2969 204.062 92.1094 204.375 92.1094C204.687 92.1094 204.875 92.3594 204.875 92.6094V106.797C204.875 107.109 204.687 107.297 204.375 107.297C204.062 107.297 203.875 107.109 203.875 106.797V92.6094Z" fill="#2A303A"/>
<path d="M213.313 107.422C210.563 107.422 208.125 105.234 208.125 101.922V101.859C208.125 98.7968 210.25 96.3593 213.125 96.3593C216.062 96.3593 217.938 98.7968 217.938 101.797C217.938 102.047 217.687 102.297 217.437 102.297H209.188C209.375 104.922 211.25 106.422 213.313 106.422C214.813 106.422 215.875 105.797 216.688 104.984C216.75 104.922 216.875 104.859 217 104.859C217.25 104.859 217.5 105.047 217.5 105.359C217.5 105.484 217.438 105.609 217.313 105.734C216.375 106.797 215.188 107.422 213.313 107.422ZM216.875 101.422C216.75 99.2968 215.5 97.3593 213.125 97.3593C211.062 97.3593 209.438 99.1093 209.25 101.422H216.875Z" fill="#2A303A"/>
<path d="M220.188 101.984C220.188 98.9843 222.5 96.4218 225.625 96.4218C228.75 96.4218 231 98.9218 231 101.859V101.922C231 104.859 228.687 107.422 225.562 107.422C222.437 107.422 220.188 104.922 220.188 101.984ZM229.875 101.984C229.875 99.4218 228 97.3593 225.562 97.3593C223.062 97.3593 221.25 99.4218 221.25 101.859V101.922C221.25 104.484 223.125 106.484 225.562 106.484C228.125 106.484 229.875 104.484 229.875 101.984Z" fill="#2A303A"/>
<path d="M233.437 106.047C233.375 105.984 233.25 105.797 233.25 105.672C233.25 105.422 233.5 105.172 233.75 105.172C233.875 105.172 234 105.234 234.062 105.297C235.125 106.109 236.312 106.484 237.562 106.484C239 106.484 240.125 105.672 240.125 104.484V104.422C240.125 103.172 238.812 102.734 237.312 102.297C235.625 101.797 233.687 101.297 233.687 99.4218V99.3593C233.687 97.6718 235.125 96.4218 237.125 96.4218C238.25 96.4218 239.5 96.7968 240.5 97.3593C240.625 97.4218 240.75 97.6093 240.75 97.7968C240.75 98.0468 240.5 98.2968 240.25 98.2968C240.125 98.2968 240 98.2343 239.937 98.2343C239 97.6718 238 97.3593 237 97.3593C235.562 97.3593 234.625 98.1718 234.625 99.1718V99.2343C234.625 100.422 236.062 100.859 237.562 101.297C239.25 101.797 241 102.422 241 104.234V104.297C241 106.172 239.375 107.359 237.375 107.359C236.063 107.422 234.5 106.859 233.437 106.047Z" fill="#2A303A"/>
</svg>
