<svg width="271" height="200" viewBox="0 0 271 200" fill="none" xmlns="http://www.w3.org/2000/svg">
<rect width="271" height="200" rx="10" fill="white"/>
<path d="M138.816 97.44H134.695L132.845 92.231H125.196L123.415 97.44H119.504L126.873 77.0555H131.168L138.816 97.44ZM131.937 89.0709L128.968 80.4239L126.139 89.0709H131.937Z" fill="#023C87"/>
<path d="M162.389 97.4401H158.548V88.0986C158.548 87.0915 158.408 86.3275 158.094 85.9108C157.78 85.4593 157.291 85.251 156.627 85.251C156.068 85.251 155.545 85.4246 155.021 85.7719C154.497 86.1191 153.973 86.6053 153.449 87.2998V97.4748H149.608V88.0986C149.608 87.0915 149.468 86.3275 149.154 85.9108C148.839 85.4593 148.385 85.251 147.687 85.251C147.128 85.251 146.604 85.4246 146.045 85.7719C145.522 86.1191 144.998 86.6053 144.474 87.2998V97.4748H140.632V82.6812H144.369V84.5564C145.033 83.8272 145.731 83.2715 146.464 82.9243C147.198 82.5423 147.966 82.3687 148.734 82.3687C150.935 82.3687 152.332 83.2368 152.995 84.9732C153.344 84.5912 153.694 84.2092 154.043 83.8966C154.392 83.5841 154.776 83.3063 155.16 83.0632C155.545 82.8201 155.929 82.6465 156.348 82.5423C156.767 82.4381 157.221 82.3687 157.675 82.3687C160.818 82.3687 162.389 84.1744 162.389 87.786V97.4401V97.4401Z" fill="#023C87"/>
<path d="M172.797 97.7526C171.574 97.7526 170.492 97.579 169.549 97.2317C168.606 96.8844 167.803 96.3635 167.174 95.7037C166.545 95.0439 166.022 94.2452 165.707 93.2729C165.358 92.3352 165.183 91.2587 165.183 90.0433C165.183 88.8278 165.358 87.7513 165.707 86.779C166.056 85.8413 166.545 85.0079 167.174 84.3481C167.803 83.6883 168.571 83.1674 169.514 82.8201C170.422 82.4728 171.47 82.2992 172.622 82.2992C173.74 82.2992 174.752 82.4728 175.66 82.7854C176.568 83.0979 177.337 83.6188 177.965 84.2439C178.594 84.869 179.083 85.7024 179.432 86.64C179.781 87.5777 179.956 88.6542 179.956 89.8696V90.8767H169.13C169.165 91.6407 169.269 92.3005 169.479 92.8561C169.688 93.4118 169.933 93.8632 170.247 94.2105C170.562 94.5577 170.946 94.8356 171.365 95.0092C171.784 95.1828 172.273 95.2523 172.797 95.2523C173.6 95.2523 174.263 95.0786 174.822 94.7314C175.381 94.3841 175.765 93.7938 176.044 92.9603H179.607C179.467 93.7243 179.188 94.3841 178.803 94.9745C178.419 95.5648 177.93 96.051 177.337 96.4677C176.743 96.8844 176.079 97.197 175.311 97.3706C174.543 97.5442 173.705 97.7526 172.797 97.7526ZM176.044 88.55C175.905 87.2651 175.521 86.2928 174.927 85.6677C174.333 85.0426 173.565 84.7301 172.587 84.7301C171.644 84.7301 170.876 85.0426 170.282 85.6677C169.688 86.2928 169.304 87.2651 169.165 88.55H176.044ZM176.813 76.604L173.355 80.5976H170.666L172.447 76.604H176.813Z" fill="#023C87"/>
<path d="M191.795 85.8761C191.585 85.8066 191.306 85.7371 191.027 85.7024C190.747 85.6677 190.398 85.633 190.049 85.633C189.385 85.633 188.757 85.7719 188.198 86.0844C187.604 86.397 187.08 86.8484 186.591 87.5082V97.3706H182.75V82.6812H186.487V84.9732C187.08 84.105 187.709 83.4452 188.407 82.9937C189.106 82.5423 189.839 82.3687 190.607 82.3687C190.782 82.3687 190.992 82.3687 191.166 82.4034C191.341 82.4034 191.55 82.4381 191.76 82.4728V85.8761H191.795Z" fill="#023C87"/>
<path d="M197.592 80.2156H193.75V76.986H197.592V80.2156ZM197.592 97.4401H193.75V82.6812H197.592V97.4401Z" fill="#023C87"/>
<path d="M207.825 97.7526C206.672 97.7526 205.624 97.579 204.716 97.2317C203.808 96.8844 203.04 96.3983 202.377 95.7385C201.748 95.0786 201.259 94.2799 200.91 93.3076C200.561 92.37 200.386 91.2587 200.386 90.0433C200.386 88.8278 200.561 87.7166 200.91 86.779C201.259 85.8066 201.748 85.0079 202.377 84.3481C203.005 83.6883 203.774 83.2021 204.716 82.8548C205.624 82.5076 206.672 82.3339 207.825 82.3339C208.698 82.3339 209.501 82.4381 210.269 82.6812C211.003 82.8896 211.666 83.2368 212.225 83.6536C212.784 84.105 213.238 84.6259 213.587 85.251C213.936 85.8761 214.146 86.6401 214.25 87.4388H210.688C210.584 86.7095 210.304 86.1539 209.78 85.7372C209.291 85.3204 208.663 85.1121 207.86 85.1121C207.336 85.1121 206.847 85.2163 206.428 85.3899C206.009 85.5983 205.624 85.8761 205.31 86.2928C204.996 86.7095 204.751 87.1957 204.612 87.8208C204.472 88.4458 204.367 89.1751 204.367 90.0085C204.367 90.842 204.437 91.5712 204.612 92.1616C204.786 92.7867 205.031 93.2729 205.31 93.6896C205.624 94.1063 205.974 94.3841 206.428 94.5925C206.847 94.8008 207.336 94.905 207.86 94.905C208.244 94.905 208.593 94.8356 208.907 94.7314C209.222 94.6272 209.536 94.4536 209.78 94.2799C210.025 94.0716 210.234 93.8285 210.374 93.5507C210.514 93.2729 210.618 92.9256 210.653 92.5783H214.216C214.111 93.377 213.866 94.1063 213.552 94.7661C213.203 95.3912 212.749 95.9468 212.225 96.3983C211.701 96.8497 211.038 97.1623 210.304 97.4053C209.571 97.6484 208.733 97.7526 207.825 97.7526Z" fill="#023C87"/>
<path d="M225.88 96.0857C225.216 96.6413 224.483 97.0928 223.645 97.3706C222.806 97.6484 221.864 97.7873 220.816 97.7873C220.082 97.7873 219.419 97.6831 218.79 97.5095C218.162 97.3359 217.638 97.0581 217.149 96.6761C216.66 96.2941 216.311 95.8774 216.066 95.3217C215.787 94.8008 215.682 94.1757 215.682 93.4465C215.682 90.0433 218.651 88.3417 224.553 88.3417H225.845C225.845 87.5777 225.81 86.9873 225.775 86.64C225.74 86.397 225.67 86.1886 225.565 85.9802C225.461 85.7719 225.356 85.5982 225.181 85.4593C225.007 85.1815 224.727 85.0079 224.308 84.9037C223.924 84.7995 223.435 84.7301 222.876 84.7301C221.864 84.7301 221.13 84.9037 220.606 85.2857C220.082 85.6677 219.803 86.1886 219.733 86.9179H216.276C216.485 83.8966 218.72 82.3687 222.981 82.3687C224.029 82.3687 224.937 82.4381 225.74 82.6117C226.543 82.7854 227.242 83.0632 227.87 83.4799C228.464 83.8619 228.918 84.3828 229.197 85.0773C229.477 85.7719 229.651 86.7095 229.651 87.8902V97.4053H225.845V96.0857H225.88ZM225.845 90.6336H224.378C222.772 90.6336 221.584 90.842 220.816 91.2587C220.013 91.6754 219.628 92.3352 219.628 93.2381C219.628 93.9327 219.873 94.4536 220.327 94.7661C220.816 95.1134 221.444 95.287 222.213 95.287C222.562 95.287 222.946 95.2523 223.295 95.1481C223.645 95.0786 223.994 94.9397 224.308 94.8008C224.622 94.6619 224.902 94.4883 225.181 94.2452C225.461 94.0368 225.67 93.7937 225.88 93.5159V90.6336H225.845Z" fill="#023C87"/>
<path d="M129.562 124.145C126.733 124.145 124.533 123.555 123.031 122.339C121.529 121.124 120.691 119.387 120.552 117.095H124.323C124.393 117.755 124.568 118.311 124.847 118.797C125.126 119.283 125.476 119.665 125.93 120.012C126.384 120.325 126.908 120.568 127.501 120.742C128.095 120.915 128.758 120.985 129.457 120.985C130.12 120.985 130.749 120.915 131.308 120.776C131.867 120.638 132.321 120.464 132.705 120.221C133.089 119.978 133.368 119.665 133.578 119.318C133.787 118.971 133.892 118.554 133.892 118.102C133.892 117.686 133.787 117.338 133.613 117.061C133.438 116.783 133.124 116.505 132.775 116.297C132.39 116.054 131.936 115.88 131.343 115.706C130.784 115.533 130.086 115.359 129.317 115.151C128.2 114.873 127.187 114.63 126.244 114.352C125.301 114.074 124.533 113.762 123.834 113.38C123.136 112.998 122.612 112.511 122.193 111.956C121.774 111.4 121.529 110.706 121.39 109.837C121.355 109.629 121.32 109.386 121.32 109.178C121.32 108.969 121.32 108.726 121.32 108.483C121.39 107.684 121.599 106.955 121.983 106.295C122.368 105.636 122.891 105.08 123.555 104.594C124.218 104.108 125.022 103.76 125.93 103.482C126.838 103.205 127.885 103.1 129.003 103.1C130.225 103.1 131.343 103.239 132.321 103.517C133.333 103.795 134.172 104.212 134.87 104.767C135.568 105.323 136.127 105.983 136.546 106.747C136.965 107.511 137.175 108.414 137.21 109.386H133.403C133.194 107.302 131.762 106.261 129.108 106.261C128.479 106.261 127.92 106.33 127.396 106.434C126.908 106.573 126.488 106.747 126.139 106.955C125.79 107.198 125.546 107.441 125.336 107.754C125.126 108.066 125.057 108.414 125.057 108.796C125.057 109.178 125.126 109.49 125.301 109.733C125.441 110.011 125.72 110.219 126.069 110.428C126.419 110.636 126.873 110.81 127.396 110.983C127.955 111.157 128.619 111.331 129.387 111.504C130.12 111.678 130.819 111.817 131.517 111.991C132.216 112.164 132.844 112.338 133.473 112.546C134.102 112.755 134.66 113.032 135.184 113.31C135.708 113.588 136.162 113.97 136.511 114.387C136.896 114.803 137.175 115.29 137.384 115.845C137.594 116.401 137.699 117.061 137.699 117.825C137.699 118.797 137.489 119.665 137.07 120.429C136.651 121.193 136.092 121.853 135.359 122.409C134.626 122.964 133.752 123.381 132.775 123.659C131.797 123.937 130.749 124.145 129.562 124.145Z" fill="#023C87"/>
<path d="M146.43 108.761C147.547 108.761 148.56 108.935 149.468 109.247C150.376 109.56 151.144 110.081 151.808 110.706C152.437 111.365 152.926 112.164 153.275 113.137C153.624 114.109 153.799 115.185 153.799 116.47C153.799 117.72 153.624 118.832 153.275 119.769C152.926 120.742 152.437 121.54 151.808 122.2C151.179 122.86 150.376 123.346 149.468 123.693C148.56 124.041 147.547 124.214 146.43 124.214C145.312 124.214 144.265 124.041 143.357 123.693C142.449 123.346 141.68 122.86 141.017 122.2C140.388 121.54 139.864 120.742 139.515 119.769C139.166 118.797 138.991 117.72 138.991 116.47C138.991 115.22 139.166 114.109 139.515 113.137C139.864 112.164 140.353 111.365 141.017 110.706C141.645 110.046 142.449 109.56 143.357 109.247C144.265 108.935 145.312 108.761 146.43 108.761ZM146.43 121.332C146.954 121.332 147.408 121.228 147.862 121.02C148.281 120.811 148.665 120.533 148.944 120.117C149.259 119.7 149.468 119.214 149.643 118.589C149.817 117.964 149.887 117.269 149.887 116.436C149.887 115.602 149.817 114.873 149.643 114.248C149.468 113.623 149.259 113.137 148.944 112.72C148.63 112.303 148.281 112.025 147.862 111.817C147.443 111.609 146.954 111.504 146.43 111.504C145.906 111.504 145.417 111.609 144.998 111.817C144.579 112.025 144.195 112.303 143.915 112.72C143.601 113.137 143.392 113.623 143.217 114.248C143.042 114.873 142.972 115.602 142.972 116.436C142.972 117.269 143.042 117.998 143.217 118.589C143.392 119.214 143.601 119.7 143.915 120.117C144.23 120.533 144.579 120.811 144.998 121.02C145.417 121.263 145.906 121.332 146.43 121.332Z" fill="#023C87"/>
<path d="M159.456 123.832H155.615V103.448H159.456V123.832Z" fill="#023C87"/>
<path d="M165.952 106.608H162.11V103.378H165.952V106.608ZM165.952 123.832H162.11V109.108H165.952V123.832Z" fill="#023C87"/>
<path d="M178.07 122.027C177.476 122.721 176.813 123.242 176.08 123.589C175.346 123.971 174.543 124.145 173.705 124.145C172.727 124.145 171.889 123.971 171.155 123.624C170.422 123.277 169.793 122.756 169.27 122.096C168.746 121.436 168.396 120.638 168.117 119.7C167.873 118.762 167.733 117.72 167.733 116.54C167.733 115.359 167.873 114.317 168.187 113.345C168.466 112.373 168.885 111.574 169.444 110.879C169.968 110.185 170.632 109.664 171.4 109.282C172.168 108.9 173.041 108.726 174.019 108.726C174.857 108.726 175.591 108.83 176.254 109.074C176.883 109.317 177.511 109.664 178.07 110.185C178.035 109.664 178.035 109.178 178 108.726C178 108.275 178 107.823 178 107.407V103.448H181.842V123.798H178.105V122.027H178.07ZM177.965 112.893C177.057 111.991 176.01 111.539 174.822 111.539C173.81 111.539 173.041 111.956 172.482 112.789C171.924 113.623 171.644 114.873 171.644 116.54C171.644 118.137 171.889 119.353 172.378 120.151C172.867 120.95 173.6 121.332 174.578 121.332C175.206 121.332 175.765 121.158 176.324 120.776C176.883 120.429 177.407 119.874 177.896 119.179V112.893H177.965Z" fill="#023C87"/>
<path d="M193.82 122.478C193.157 123.034 192.423 123.485 191.585 123.763C190.747 124.041 189.804 124.18 188.757 124.18C188.023 124.18 187.36 124.075 186.731 123.902C186.102 123.728 185.579 123.45 185.09 123.068C184.636 122.721 184.251 122.27 184.007 121.714C183.728 121.193 183.623 120.568 183.623 119.839C183.623 116.436 186.591 114.734 192.493 114.734H193.785C193.785 113.97 193.751 113.38 193.716 113.032C193.681 112.789 193.611 112.581 193.506 112.373C193.401 112.164 193.297 111.991 193.122 111.852C192.947 111.574 192.668 111.4 192.249 111.296C191.865 111.192 191.376 111.122 190.817 111.122C189.804 111.122 189.071 111.296 188.547 111.678C188.023 112.06 187.744 112.581 187.674 113.31H184.217C184.426 110.289 186.661 108.761 190.922 108.761C191.969 108.761 192.877 108.83 193.681 109.004C194.484 109.178 195.182 109.456 195.811 109.872C196.405 110.254 196.859 110.775 197.138 111.47C197.417 112.164 197.592 113.102 197.592 114.283V123.798H193.785V122.478H193.82ZM193.785 117.026H192.319C190.712 117.026 189.525 117.234 188.757 117.651C187.988 118.068 187.569 118.728 187.569 119.63C187.569 120.325 187.814 120.846 188.268 121.158C188.757 121.506 189.385 121.679 190.153 121.679C190.503 121.679 190.887 121.645 191.236 121.54C191.585 121.471 191.935 121.332 192.249 121.193C192.563 121.054 192.843 120.881 193.122 120.638C193.401 120.394 193.611 120.186 193.82 119.908V117.026H193.785Z" fill="#023C87"/>
<path d="M209.291 112.268C209.082 112.199 208.802 112.129 208.523 112.095C208.244 112.06 207.894 112.025 207.545 112.025C206.882 112.025 206.253 112.164 205.694 112.477C205.101 112.789 204.577 113.241 204.088 113.901V123.763H200.246V109.039H203.983V111.296C204.577 110.428 205.205 109.768 205.904 109.317C206.602 108.865 207.336 108.692 208.104 108.692C208.279 108.692 208.488 108.692 208.663 108.726C208.837 108.726 209.047 108.761 209.256 108.796V112.268H209.291Z" fill="#023C87"/>
<path d="M214.041 106.608H210.199V103.378H214.041V106.608ZM214.041 123.832H210.199V109.108H214.041V123.832Z" fill="#023C87"/>
<path d="M226.055 122.478C225.391 123.034 224.658 123.485 223.819 123.763C222.981 124.041 222.038 124.18 220.991 124.18C220.257 124.18 219.594 124.075 218.965 123.902C218.336 123.728 217.813 123.45 217.324 123.068C216.87 122.721 216.486 122.27 216.241 121.714C215.962 121.193 215.857 120.568 215.857 119.839C215.857 116.436 218.825 114.734 224.727 114.734H226.02C226.02 113.97 225.985 113.38 225.95 113.032C225.915 112.789 225.845 112.581 225.74 112.373C225.635 112.164 225.531 111.991 225.356 111.852C225.181 111.574 224.902 111.4 224.483 111.296C224.099 111.192 223.61 111.122 223.051 111.122C222.038 111.122 221.305 111.296 220.781 111.678C220.257 112.06 219.978 112.581 219.908 113.31H216.451C216.66 110.289 218.895 108.761 223.156 108.761C224.204 108.761 225.112 108.83 225.915 109.004C226.718 109.178 227.417 109.456 228.045 109.872C228.639 110.254 229.093 110.775 229.372 111.47C229.652 112.164 229.826 113.102 229.826 114.283V123.798H226.055V122.478ZM226.02 117.026H224.553C222.946 117.026 221.759 117.234 220.991 117.651C220.187 118.068 219.803 118.728 219.803 119.63C219.803 120.325 220.048 120.846 220.502 121.158C220.991 121.506 221.619 121.679 222.388 121.679C222.737 121.679 223.121 121.645 223.47 121.54C223.819 121.471 224.169 121.332 224.483 121.193C224.797 121.054 225.077 120.881 225.356 120.638C225.635 120.394 225.845 120.186 226.055 119.908V117.026H226.02Z" fill="#023C87"/>
<path d="M67.9923 106.782C64.5699 99.6626 64.5699 93.7938 64.7445 91.3976C58.6678 87.9597 48.7497 85.2857 43.7208 84.0703C42.4984 83.7925 41.5555 85.0774 42.2191 86.1539C48.0512 95.4606 57.7598 104.351 60.6934 106.92C61.1823 107.337 61.2871 108.066 60.9728 108.622C59.9949 110.358 58.5282 113.414 56.9566 116.783C59.7155 113.31 63.6619 109.074 67.9923 106.782Z" fill="#7AB221"/>
<path d="M65.4429 91.7102C65.3032 94.141 65.4429 99.8015 68.6209 106.504C70.1576 105.774 72.3228 105.115 74.8373 104.316C77.1771 103.587 79.7614 102.753 82.3108 101.781C81.9965 101.399 81.6473 101.017 81.298 100.635C76.4437 95.287 69.7036 92.37 66.6652 91.224C66.3859 91.606 65.8969 91.7796 65.4429 91.7102Z" fill="#F2BF33"/>
<path d="M55.5596 119.769C53.9182 123.381 52.2419 127.062 51.0545 129.805C50.4957 131.09 51.9625 132.306 53.115 131.507L73.9641 117.269C74.0689 117.2 74.2085 117.13 74.3482 117.095C72.4973 114.699 70.2972 111.435 68.3065 107.407C62.8935 110.254 58.109 116.227 55.5596 119.769Z" fill="#247D3B"/>
<path d="M75.0468 104.941C72.5673 105.705 70.4021 106.4 68.9353 107.094C71.0656 111.365 73.3705 114.734 75.2564 117.13C75.4659 117.2 75.6755 117.338 75.8501 117.547C79.9012 122.548 87.5842 128.382 91.7052 131.368C92.7179 132.097 94.1498 131.194 93.8704 129.979C93.1719 126.611 91.9147 121.297 89.959 116.922C88.3526 113.275 87.7589 111.331 87.5842 110.289C87.5144 109.872 87.6541 109.49 87.8986 109.178C86.6064 107.198 84.8952 104.802 82.7649 102.302C80.1456 103.344 77.4565 104.212 75.0468 104.941Z" fill="#D4261F"/>
<path d="M81.7869 100.149C82.206 100.6 82.5901 101.052 82.9743 101.468C87.1651 99.7667 91.2161 97.579 93.8005 94.4536L83.3235 95.8079C82.4155 95.9121 81.6472 95.1481 81.752 94.2799L84.6855 70.5616C84.8601 69.2419 83.2187 68.4779 82.3107 69.4156C76.9326 74.9371 69.6336 86.3969 67.0144 90.6336C70.2273 91.8143 76.9326 94.8355 81.7869 100.149Z" fill="#21478F"/>
<path d="M106.513 92.8214L94.8134 94.3494C92.1942 97.8568 87.9335 100.253 83.4634 102.059C85.5238 104.49 87.2002 106.851 88.4574 108.796C95.6865 105.462 103.439 99.0027 107.63 95.2175C108.643 94.2799 107.875 92.613 106.513 92.8214Z" fill="#E3751F"/>
</svg>
