<svg width="112" height="90" viewBox="0 0 112 90" fill="none" xmlns="http://www.w3.org/2000/svg">
<path d="M108.267 90H3.73333C1.67137 90 0 88.3212 0 86.25V3.75C0 1.67883 1.67137 0 3.73333 0H108.267C110.329 0 112 1.67883 112 3.75V86.25C112 88.3212 110.329 90 108.267 90Z" fill="#A68D9D"/>
<path d="M102.667 90H3.73333C1.67137 90 0 88.3212 0 86.25V3.75C0 1.67883 1.67137 0 3.73333 0H102.667C104.729 0 106.4 1.67883 106.4 3.75V86.25C106.4 88.3212 104.729 90 102.667 90Z" fill="#E4DEE5"/>
<path d="M85.8668 41.25H67.2001C65.1382 41.25 63.4668 39.5712 63.4668 37.5V18.75C63.4668 16.6788 65.1382 15 67.2001 15H85.8668C87.9288 15 89.6001 16.6788 89.6001 18.75V37.5C89.6001 39.5712 87.9288 41.25 85.8668 41.25Z" fill="#A68D9D"/>
<path d="M52.2669 41.25H14.9335C12.8716 41.25 11.2002 39.5712 11.2002 37.5C11.2002 35.4288 12.8716 33.75 14.9335 33.75H52.2669C54.3288 33.75 56.0002 35.4288 56.0002 37.5C56.0002 39.5712 54.3288 41.25 52.2669 41.25Z" fill="#A68D9D"/>
<path d="M33.6002 30H14.9335C12.8716 30 11.2002 28.3212 11.2002 26.25C11.2002 24.1788 12.8716 22.5 14.9335 22.5H33.6002C35.6622 22.5 37.3335 24.1788 37.3335 26.25C37.3335 28.3212 35.6622 30 33.6002 30Z" fill="#A68D9D"/>
<path d="M33.6002 67.5H14.9335C12.8716 67.5 11.2002 65.8212 11.2002 63.75C11.2002 61.6788 12.8716 60 14.9335 60H33.6002C35.6622 60 37.3335 61.6788 37.3335 63.75C37.3335 65.8212 35.6622 67.5 33.6002 67.5Z" fill="#A68D9D"/>
<path d="M52.2669 78.75H14.9335C12.8716 78.75 11.2002 77.0712 11.2002 75C11.2002 72.9288 12.8716 71.25 14.9335 71.25H52.2669C54.3288 71.25 56.0002 72.9288 56.0002 75C56.0002 77.0712 54.3288 78.75 52.2669 78.75Z" fill="#A68D9D"/>
<path d="M85.8668 78.75H67.2001C65.1382 78.75 63.4668 77.0712 63.4668 75V56.25C63.4668 54.1788 65.1382 52.5 67.2001 52.5H85.8668C87.9288 52.5 89.6001 54.1788 89.6001 56.25V75C89.6001 77.0712 87.9288 78.75 85.8668 78.75Z" fill="#A68D9D"/>
<path d="M78.4001 37.5C77.4446 37.5 76.4894 37.1337 75.7604 36.4015L68.2938 28.9015C66.8357 27.4371 66.8357 25.0627 68.2938 23.5983C69.7516 22.1339 72.1155 22.1339 73.5734 23.5983L78.4001 28.4468L94.4271 12.3483C95.885 10.8839 98.2489 10.8839 99.7067 12.3483C101.165 13.8127 101.165 16.1871 99.7067 17.6515L81.0401 36.4015C80.3109 37.1339 79.3556 37.5 78.4001 37.5Z" fill="#534559"/>
<path d="M112 7.5H0V3.75C0 1.67883 1.67137 0 3.73333 0H108.267C110.329 0 112 1.67883 112 3.75V7.5Z" fill="#463C4B"/>
<path d="M106.4 7.5H0V3.75C0 1.67883 1.67137 0 3.73333 0H102.667C104.729 0 106.4 1.67883 106.4 3.75V7.5Z" fill="#555A6E"/>
<path d="M7.46676 5.625C8.49769 5.625 9.33343 4.78553 9.33343 3.75C9.33343 2.71447 8.49769 1.875 7.46676 1.875C6.43583 1.875 5.6001 2.71447 5.6001 3.75C5.6001 4.78553 6.43583 5.625 7.46676 5.625Z" fill="#BFA8B9"/>
<path d="M14.9336 5.625C15.9645 5.625 16.8002 4.78553 16.8002 3.75C16.8002 2.71447 15.9645 1.875 14.9336 1.875C13.9026 1.875 13.0669 2.71447 13.0669 3.75C13.0669 4.78553 13.9026 5.625 14.9336 5.625Z" fill="#534559"/>
<path d="M22.3999 5.625C23.4308 5.625 24.2665 4.78553 24.2665 3.75C24.2665 2.71447 23.4308 1.875 22.3999 1.875C21.3689 1.875 20.5332 2.71447 20.5332 3.75C20.5332 4.78553 21.3689 5.625 22.3999 5.625Z" fill="#E4DEE5"/>
<path d="M102.667 46.875C104.729 46.875 106.4 48.5538 106.4 50.625V54.375H98.9336V50.625C98.9336 48.5538 100.605 46.875 102.667 46.875Z" fill="#FAB991"/>
<path d="M95.2001 46.875C97.2621 46.875 98.9335 48.5538 98.9335 50.625V54.375H91.4668V50.625C91.4668 48.5538 93.1382 46.875 95.2001 46.875Z" fill="#FAB991"/>
<path d="M87.7333 46.875C89.7953 46.875 91.4667 48.5538 91.4667 50.625V54.375H84V50.625C84 48.5538 85.6714 46.875 87.7333 46.875Z" fill="#FAB991"/>
<path d="M80.267 30C82.329 30 84.0004 31.6788 84.0004 33.75V54.375H76.5337V33.75C76.5337 31.6788 78.2051 30 80.267 30Z" fill="#FAB991"/>
<path d="M76.5337 54.375V76.875V82.5H102.667V76.875C104.729 76.875 106.4 75.1959 106.4 73.125V54.375H76.5337Z" fill="#F0915A"/>
<path d="M76.5337 82.5H89.6004C89.6004 79.3934 87.0932 76.875 84.0004 76.875H76.5337V82.5Z" fill="#FAB991"/>
<path d="M70.9336 54.375C74.0264 54.375 76.5336 56.8934 76.5336 60V76.875C72.4099 76.875 69.0669 73.5171 69.0669 69.375V56.25C69.0669 55.2145 69.9027 54.375 70.9336 54.375Z" fill="#FAB991"/>
<path d="M102.667 82.5H76.5336C74.4717 82.5 72.8003 84.1788 72.8003 86.25V90H106.4V86.25C106.4 84.1788 104.729 82.5 102.667 82.5Z" fill="#555A6E"/>
<path d="M102.667 82.5H89.6001V90H106.4V86.25C106.4 84.1788 104.729 82.5 102.667 82.5Z" fill="#534559"/>
<path d="M80.2671 35.625C81.298 35.625 82.1337 34.7855 82.1337 33.75C82.1337 32.7145 81.298 31.875 80.2671 31.875C79.2361 31.875 78.4004 32.7145 78.4004 33.75C78.4004 34.7855 79.2361 35.625 80.2671 35.625Z" fill="#F0915A"/>
<path d="M72.1779 61.875H69.0669V56.25C71.4723 56.25 73.4225 58.2087 73.4225 60.6251C73.4225 61.3153 72.8653 61.875 72.1779 61.875Z" fill="#F0915A"/>
</svg>
