<svg width="60" height="59" viewBox="0 0 60 59" fill="none" xmlns="http://www.w3.org/2000/svg">
<path d="M59.2609 29.4157C59.2609 13.1702 46.0906 0 29.8451 0C13.5996 0 0.429443 13.1702 0.429443 29.4157C0.429443 45.6612 13.5996 58.8314 29.8451 58.8314C46.0906 58.8314 59.2609 45.6612 59.2609 29.4157ZM3.10358 29.4157C3.10358 14.6463 15.0758 2.67414 29.8451 2.67414C44.6145 2.67414 56.5867 14.6463 56.5867 29.4157C56.5867 44.1851 44.6145 56.1573 29.8451 56.1573C15.0758 56.1573 3.10358 44.1851 3.10358 29.4157Z" fill="#F5F7F9"/>
<path d="M27.4125 28.4749C28.8104 27.8043 29.5401 26.7896 29.5401 25.2101C29.5401 22.0953 27.2279 21.3364 24.5597 21.3364H17.2144V36.9723H24.7663C27.5972 36.9723 30.2566 35.609 30.2566 32.4324C30.2566 30.4691 29.3291 29.0176 27.4125 28.4749V28.4749ZM20.6387 24.0056H23.852C25.0872 24.0056 26.1993 24.3542 26.1993 25.7925C26.1993 27.1205 25.3333 27.6543 24.1113 27.6543H20.6387V24.0056V24.0056ZM24.3003 34.3163H20.6387V30.0103H24.3707C25.8784 30.0103 26.8323 30.6412 26.8323 32.2427C26.8323 33.8222 25.6938 34.3163 24.3003 34.3163V34.3163ZM40.0592 23.6968H33.7425V22.157H40.0592V23.6968V23.6968ZM42.534 31.475C42.534 28.1264 40.5823 25.3336 37.0437 25.3336C33.6062 25.3336 31.272 27.9278 31.272 31.325C31.272 34.8501 33.4831 37.2679 37.0437 37.2679C39.7383 37.2679 41.4834 36.0502 42.323 33.4604H39.5888C39.2943 34.4266 38.0811 34.9384 37.1404 34.9384C35.3249 34.9384 34.3711 33.8707 34.3711 32.0574H42.5076C42.5208 31.8721 42.534 31.6736 42.534 31.475ZM34.3754 30.0985C34.4765 28.6117 35.4612 27.6808 36.947 27.6808C38.5031 27.6808 39.2855 28.5985 39.4174 30.0985H34.3754Z" fill="#F5F7F9"/>
</svg>
