<svg width="165" height="148" viewBox="0 0 165 148" fill="none" xmlns="http://www.w3.org/2000/svg">
<path d="M158.963 98.6667H49.3335C46.306 98.6667 43.8521 96.2127 43.8521 93.1852V5.48148C43.8521 2.45399 46.306 0 49.3335 0H158.963C161.991 0 164.445 2.45399 164.445 5.48148V93.1852C164.445 96.2127 161.991 98.6667 158.963 98.6667Z" fill="#E4DEE5"/>
<path d="M164.445 10.963H43.8521V5.48148C43.8521 2.45399 46.306 0 49.3335 0H158.963C161.991 0 164.445 2.45399 164.445 5.48148V10.963Z" fill="#534559"/>
<path d="M54.815 8.2222C56.3286 8.2222 57.5557 6.99513 57.5557 5.48146C57.5557 3.96779 56.3286 2.74072 54.815 2.74072C53.3013 2.74072 52.0742 3.96779 52.0742 5.48146C52.0742 6.99513 53.3013 8.2222 54.815 8.2222Z" fill="#BFA8B9"/>
<path d="M65.7779 8.2222C67.2915 8.2222 68.5186 6.99513 68.5186 5.48146C68.5186 3.96779 67.2915 2.74072 65.7779 2.74072C64.2642 2.74072 63.0371 3.96779 63.0371 5.48146C63.0371 6.99513 64.2642 8.2222 65.7779 8.2222Z" fill="#534559"/>
<path d="M76.7407 8.2222C78.2544 8.2222 79.4815 6.99513 79.4815 5.48146C79.4815 3.96779 78.2544 2.74072 76.7407 2.74072C75.2271 2.74072 74 3.96779 74 5.48146C74 6.99513 75.2271 8.2222 76.7407 8.2222Z" fill="#E4DEE5"/>
<path d="M150.741 54.8147H56.6421C55.1285 54.8147 53.9014 53.5875 53.9014 52.0739V24.6665C53.9014 23.1529 55.1285 21.9258 56.6421 21.9258H150.741C152.255 21.9258 153.482 23.1529 153.482 24.6665V52.0739C153.482 53.5875 152.255 54.8147 150.741 54.8147Z" fill="#A68D9D"/>
<path d="M90.4447 87.7038H56.6421C55.1285 87.7038 53.9014 86.4766 53.9014 84.9631V63.0371C53.9014 61.5236 55.1285 60.2964 56.6421 60.2964H90.4447C91.9583 60.2964 93.1854 61.5236 93.1854 63.0371V84.9631C93.1854 86.4766 91.9583 87.7038 90.4447 87.7038Z" fill="#A68D9D"/>
<path d="M150.741 65.7779H100.494C98.9806 65.7779 97.7534 64.5507 97.7534 63.0371C97.7534 61.5236 98.9806 60.2964 100.494 60.2964H150.741C152.255 60.2964 153.482 61.5236 153.482 63.0371C153.482 64.5507 152.255 65.7779 150.741 65.7779Z" fill="#A68D9D"/>
<path d="M150.741 76.7408H100.494C98.9806 76.7408 97.7534 75.5136 97.7534 74C97.7534 72.4864 98.9806 71.2593 100.494 71.2593H150.741C152.255 71.2593 153.482 72.4864 153.482 74C153.482 75.5136 152.255 76.7408 150.741 76.7408Z" fill="#A68D9D"/>
<path d="M150.741 87.7036H100.494C98.9806 87.7036 97.7534 86.4765 97.7534 84.9629C97.7534 83.4493 98.9806 82.2222 100.494 82.2222H150.741C152.255 82.2222 153.482 83.4493 153.482 84.9629C153.482 86.4765 152.255 87.7036 150.741 87.7036Z" fill="#A68D9D"/>
<path d="M126.074 126.074C141.211 126.074 153.481 113.803 153.481 98.6667C153.481 83.53 141.211 71.2593 126.074 71.2593C110.937 71.2593 98.6665 83.53 98.6665 98.6667C98.6665 113.803 110.937 126.074 126.074 126.074Z" fill="#F5F7F9"/>
<path d="M126.074 112.37C124.671 112.37 123.268 111.835 122.198 110.765L111.235 99.8017C109.094 97.6612 109.094 94.1904 111.235 92.0498C113.376 89.9093 116.846 89.9093 118.987 92.0498L126.074 99.137L149.605 75.6054C151.746 73.4649 155.217 73.4649 157.357 75.6054C159.498 77.7459 159.498 81.2167 157.357 83.3572L129.95 110.765C128.879 111.835 127.477 112.37 126.074 112.37Z" fill="#534559"/>
<path d="M43.8521 148C46.8794 148 49.3336 145.545 49.3336 142.518C49.3336 139.491 46.8794 137.037 43.8521 137.037C40.8247 137.037 38.3706 139.491 38.3706 142.518C38.3706 145.545 40.8247 148 43.8521 148Z" fill="#E4DEE5"/>
<path d="M43.8521 137.037V148C46.8795 148 49.3335 145.546 49.3335 142.518C49.3335 139.491 46.8795 137.037 43.8521 137.037Z" fill="#BFA8B9"/>
<path d="M49.3333 104.148H38.3704C17.179 104.148 0 86.969 0 65.7776C0 44.5862 17.179 27.4072 38.3704 27.4072H49.3333C70.5247 27.4072 87.7037 44.5862 87.7037 65.7776C87.7037 86.969 70.5247 104.148 49.3333 104.148Z" fill="#534559"/>
<path d="M38.3704 104.148C59.5617 104.148 76.7407 86.969 76.7407 65.7776C76.7407 44.5862 59.5617 27.4072 38.3704 27.4072C17.179 27.4072 0 44.5862 0 65.7776C0 86.969 17.179 104.148 38.3704 104.148Z" fill="#A68D9D"/>
<path d="M38.3702 92.2711C53.0022 92.2711 64.8639 80.4095 64.8639 65.7774C64.8639 51.1453 53.0022 39.2837 38.3702 39.2837C23.7381 39.2837 11.8765 51.1453 11.8765 65.7774C11.8765 80.4095 23.7381 92.2711 38.3702 92.2711Z" fill="#E4DEE5"/>
<path d="M27.4073 60.296C30.4346 60.296 32.8887 57.8418 32.8887 54.8145C32.8887 51.7872 30.4346 49.333 27.4073 49.333C24.3799 49.333 21.9258 51.7872 21.9258 54.8145C21.9258 57.8418 24.3799 60.296 27.4073 60.296Z" fill="#F5F7F9"/>
<path d="M38.3706 104.148H49.3336V109.629H38.3706V104.148Z" fill="#E4DEE5"/>
<path d="M38.3706 104.148V106.889H41.1113C42.6249 106.889 43.8521 108.116 43.8521 109.629H49.3336V104.148H38.3706Z" fill="#BFA8B9"/>
<path d="M49.3331 142.518H38.3701C36.8566 142.518 35.6294 141.291 35.6294 139.778V112.37C35.6294 110.857 36.8566 109.629 38.3701 109.629H49.3331C50.8467 109.629 52.0738 110.857 52.0738 112.37V139.778C52.0738 141.291 50.8467 142.518 49.3331 142.518Z" fill="#A68D9D"/>
<path d="M49.3335 142.518H43.8521V109.629H49.3335C50.8471 109.629 52.0743 110.857 52.0743 112.37V139.778C52.0743 141.291 50.8471 142.518 49.3335 142.518Z" fill="#534559"/>
</svg>
