<svg width="82" height="90" viewBox="0 0 82 90" fill="none" xmlns="http://www.w3.org/2000/svg">
<path d="M44.728 22.5005C44.1592 22.5005 43.6159 22.1714 43.3675 21.6157C43.0296 20.8603 43.3644 19.9723 44.1154 19.6323L73.9336 6.13232C74.6844 5.7922 75.5672 6.12914 75.9049 6.88476C76.2428 7.6402 75.9083 8.5282 75.1572 8.86814L45.3391 22.3681C45.1404 22.4579 44.9324 22.5005 44.728 22.5005Z" fill="#555A6E"/>
<path d="M74.5442 37.5002C74.32 37.5002 74.0927 37.4492 73.8786 37.3414L44.0604 22.3414C43.3239 21.9709 43.0253 21.07 43.3936 20.329C43.7618 19.588 44.6571 19.2878 45.3938 19.6581L75.212 34.6581C75.9483 35.0286 76.2469 35.9296 75.8786 36.6706C75.6177 37.1963 75.0912 37.5002 74.5442 37.5002Z" fill="#555A6E"/>
<path d="M44.7261 22.5004C44.5217 22.5004 44.3139 22.4578 44.1152 22.3678L14.297 8.86778C13.5462 8.52785 13.2113 7.63985 13.5491 6.88441C13.887 6.12897 14.7698 5.79203 15.5205 6.13197L45.3387 19.632C46.0895 19.9719 46.4242 20.8599 46.0864 21.6154C45.8381 22.1711 45.2949 22.5004 44.7261 22.5004Z" fill="#555A6E"/>
<path d="M14.9105 37.5004C14.3635 37.5004 13.837 37.1965 13.5757 36.6709C13.2075 35.9299 13.5058 35.029 14.2425 34.6585L44.0607 19.6585C44.7974 19.288 45.6927 19.5882 46.061 20.3294C46.4292 21.0704 46.1307 21.9713 45.3943 22.3418L15.5762 37.3418C15.362 37.4492 15.1345 37.5004 14.9105 37.5004Z" fill="#555A6E"/>
<path d="M44.7273 39C54.6082 39 62.6182 30.9411 62.6182 21C62.6182 11.0589 54.6082 3 44.7273 3C34.8465 3 26.8364 11.0589 26.8364 21C26.8364 30.9411 34.8465 39 44.7273 39Z" fill="#555A6E"/>
<path d="M74.5454 15C78.6624 15 81.9999 11.6421 81.9999 7.5C81.9999 3.35786 78.6624 0 74.5454 0C70.4283 0 67.0908 3.35786 67.0908 7.5C67.0908 11.6421 70.4283 15 74.5454 15Z" fill="#E4DEE5"/>
<path d="M74.5455 12C77.0157 12 79.0182 9.98528 79.0182 7.5C79.0182 5.01472 77.0157 3 74.5455 3C72.0753 3 70.0728 5.01472 70.0728 7.5C70.0728 9.98528 72.0753 12 74.5455 12Z" fill="#A68D9D"/>
<path d="M74.5457 39H17.8911V90H47.7093V84H65.6002C72.1874 84 77.5275 78.6274 77.5275 72V42C77.5275 40.3432 76.1926 39 74.5457 39Z" fill="#FAB991"/>
<path d="M38.7636 39H14.9091C13.2622 39 11.9272 40.3433 11.9272 42V72C11.9272 75.3137 14.5973 78 17.8909 78H32.8C36.0936 78 38.7636 75.3137 38.7636 72V57C43.7041 57 47.7091 52.9706 47.7091 48V39H38.7636Z" fill="#463C4B"/>
<path d="M38.7638 48C33.8233 48 29.8184 52.0294 29.8184 57C29.8184 61.9706 33.8233 66 38.7638 66V48Z" fill="#F0915A"/>
<path d="M47.7093 90H17.8911C17.8911 86.6863 20.5611 84 23.8548 84H47.7093V90Z" fill="#F0915A"/>
<path d="M68.5816 66C66.1114 66 64.1089 63.9853 64.1089 61.5V51C69.0494 51 73.0543 55.0294 73.0543 60V61.5C73.0543 63.9853 71.0519 66 68.5816 66Z" fill="#F0915A"/>
<path d="M71.5639 51C73.2107 51 74.5457 49.6569 74.5457 48C74.5457 46.3431 73.2107 45 71.5639 45C69.917 45 68.582 46.3431 68.582 48C68.582 49.6569 69.917 51 71.5639 51Z" fill="#463C4B"/>
<path d="M56.6547 51C58.3015 51 59.6365 49.6569 59.6365 48C59.6365 46.3431 58.3015 45 56.6547 45C55.0079 45 53.6729 46.3431 53.6729 48C53.6729 49.6569 55.0079 51 56.6547 51Z" fill="#463C4B"/>
<ellipse cx="10.3432" cy="68.9062" rx="10.3432" ry="10.4063" fill="#463C4B"/>
<ellipse cx="11.8339" cy="55.2187" rx="8.10682" ry="8.15624" fill="#463C4B"/>
<path d="M64.109 75H67.0908C69.561 75 71.5635 72.9853 71.5635 70.5H59.6362C59.6362 72.9853 61.6387 75 64.109 75Z" fill="#463C4B"/>
<path d="M53.6726 18C53.6726 12.912 49.4762 8.81028 44.3756 9.00678C39.8129 9.18265 36.066 12.8698 35.7977 17.4557C35.6363 20.2146 36.7116 22.7228 38.5173 24.475C39.6088 25.5343 40.2544 26.9741 40.2544 28.5H49.1998V28.4989C49.1998 26.9948 49.8096 25.5546 50.8926 24.5179C52.6049 22.879 53.6726 20.5656 53.6726 18Z" fill="#A68D9D"/>
<path d="M44.7271 33C42.2569 33 40.2544 30.9853 40.2544 28.5H49.1998C49.1998 30.9853 47.1974 33 44.7271 33Z" fill="#BFA8B9"/>
<path d="M41.7455 18C43.3923 18 44.7273 16.6569 44.7273 15C44.7273 13.3431 43.3923 12 41.7455 12C40.0987 12 38.7637 13.3431 38.7637 15C38.7637 16.6569 40.0987 18 41.7455 18Z" fill="#E4DEE5"/>
<path d="M44.7271 33V28.5H40.2544C40.2544 30.9853 42.2569 33 44.7271 33Z" fill="#E4DEE5"/>
<path d="M74.5454 42C78.6624 42 81.9999 38.6421 81.9999 34.5C81.9999 30.3579 78.6624 27 74.5454 27C70.4283 27 67.0908 30.3579 67.0908 34.5C67.0908 38.6421 70.4283 42 74.5454 42Z" fill="#E4DEE5"/>
<path d="M14.9091 15C19.0262 15 22.3637 11.6421 22.3637 7.5C22.3637 3.35786 19.0262 0 14.9091 0C10.7921 0 7.45459 3.35786 7.45459 7.5C7.45459 11.6421 10.7921 15 14.9091 15Z" fill="#E4DEE5"/>
<path d="M14.9091 42C19.0262 42 22.3637 38.6421 22.3637 34.5C22.3637 30.3579 19.0262 27 14.9091 27C10.7921 27 7.45459 30.3579 7.45459 34.5C7.45459 38.6421 10.7921 42 14.9091 42Z" fill="#E4DEE5"/>
<path d="M74.5455 39C77.0157 39 79.0182 36.9853 79.0182 34.5C79.0182 32.0147 77.0157 30 74.5455 30C72.0753 30 70.0728 32.0147 70.0728 34.5C70.0728 36.9853 72.0753 39 74.5455 39Z" fill="#A68D9D"/>
<path d="M14.9093 12C17.3795 12 19.382 9.98528 19.382 7.5C19.382 5.01472 17.3795 3 14.9093 3C12.439 3 10.4365 5.01472 10.4365 7.5C10.4365 9.98528 12.439 12 14.9093 12Z" fill="#A68D9D"/>
<path d="M14.9093 39C17.3795 39 19.382 36.9853 19.382 34.5C19.382 32.0147 17.3795 30 14.9093 30C12.439 30 10.4365 32.0147 10.4365 34.5C10.4365 36.9853 12.439 39 14.9093 39Z" fill="#A68D9D"/>
</svg>
