<svg width="60" height="59" viewBox="0 0 60 59" fill="none" xmlns="http://www.w3.org/2000/svg">
<path d="M59.4877 29.4157C59.4877 13.1702 46.21 0 29.8319 0C13.4537 0 0.176025 13.1702 0.176025 29.4157C0.176025 45.6612 13.4537 58.8314 29.8319 58.8314C46.21 58.8314 59.4877 45.6612 59.4877 29.4157ZM2.87199 29.4157C2.87199 14.6463 14.9419 2.67414 29.8319 2.67414C44.7218 2.67414 56.7918 14.6463 56.7918 29.4157C56.7918 44.1851 44.7218 56.1573 29.8319 56.1573C14.9419 56.1573 2.87199 44.1851 2.87199 29.4157Z" fill="#F5F7F9"/>
<path d="M38.7791 20.7676H20.3693C19.1961 20.7676 18.2451 21.7228 18.2451 22.9013V35.7033C18.2451 36.8817 19.1961 37.837 20.3693 37.837H38.7791C39.9523 37.837 40.9033 36.8817 40.9033 35.7033V22.9013C40.9033 21.7228 39.9523 20.7676 38.7791 20.7676ZM38.7791 22.9013V24.7151C37.7869 25.5267 36.2049 26.7888 32.8231 29.4488C32.0778 30.0376 30.6015 31.4523 29.5742 31.4358C28.5472 31.4525 27.0704 30.0374 26.3254 29.4488C22.944 26.7892 21.3617 25.5269 20.3693 24.7151V22.9013H38.7791ZM20.3693 35.7033V27.453C21.3834 28.2643 22.8214 29.4028 25.0133 31.1268C25.9806 31.8916 27.6745 33.5799 29.5742 33.5696C31.4646 33.5799 33.1371 31.916 34.1348 31.1271C36.3266 29.4032 37.765 28.2644 38.7791 27.4531V35.7033H20.3693Z" fill="#F5F7F9"/>
</svg>
