<svg width="43" height="66" viewBox="0 0 43 66" fill="none" xmlns="http://www.w3.org/2000/svg">
<path d="M10.7502 66C16.6842 66 21.5002 61.072 21.5002 55V44H10.7502C4.81623 44 0.000244141 48.928 0.000244141 55C0.000244141 61.072 4.81623 66 10.7502 66Z" fill="#181A26"/>
<path d="M0.000244141 33.0003C0.000244141 26.9283 4.81623 22.0002 10.7502 22.0002H21.5002V44.0003H10.7502C4.81623 44.0003 0.000244141 39.0723 0.000244141 33.0003Z" fill="#181A26"/>
<path d="M0 11C0 4.92801 4.81598 0 10.75 0H21.4999V22H10.75C4.81598 22 0 17.072 0 11Z" fill="#181A26"/>
<path d="M21.5 0H32.25C38.184 0 42.9999 4.92801 42.9999 11C42.9999 17.072 38.184 22 32.25 22H21.5V0Z" fill="#181A26"/>
<path d="M42.9999 33.0003C42.9999 39.0723 38.184 44.0003 32.25 44.0003C26.316 44.0003 21.5 39.0723 21.5 33.0003C21.5 26.9283 26.316 22.0002 32.25 22.0002C38.184 22.0002 42.9999 26.9283 42.9999 33.0003Z" fill="#181A26"/>
</svg>
