<svg width="68" height="66" viewBox="0 0 68 66" fill="none" xmlns="http://www.w3.org/2000/svg">
<path fill-rule="evenodd" clip-rule="evenodd" d="M0 10C0 4.47715 4.47715 0 10 0H58C63.5228 0 68 4.47715 68 10V56C68 61.5228 63.5228 66 58 66H10C4.47715 66 0 61.5229 0 56V10ZM48.442 40.5352V17.7694H42.9853V29.5476C42.2791 28.3618 40.064 25.5556 35.7777 25.5556C30.7179 25.5556 26.2488 29.8242 26.2488 36.2666C26.2488 41.949 30.124 47.0172 36.3887 47.0172C40.665 47.0172 43.0123 44.3432 43.7997 43.0252C43.7997 43.0252 43.4431 46.8986 47.383 46.8986C47.98 46.8986 48.7537 46.8061 49.7044 46.6219V42.1162C49.2425 42.0902 48.442 41.0886 48.442 40.5352ZM42.9853 39.0333C42.7951 39.5341 41.2376 42.5114 37.8138 42.5114C34.1962 42.5114 31.9091 39.4034 31.9091 36.3852C31.9091 33.6394 33.772 30.0614 37.488 30.0614C40.8133 30.0614 42.7677 33.5135 42.9853 34.0928V39.0333ZM22.2987 18.5596H16.6793V46.6216H22.2987V18.5596Z" fill="#181A26"/>
</svg>
