<svg width="60" height="59" viewBox="0 0 60 59" fill="none" xmlns="http://www.w3.org/2000/svg">
<path d="M59.3117 29.4157C59.3117 13.1702 46.0339 0 29.6559 0C13.2777 0 0 13.1702 0 29.4157C0 45.6612 13.2777 58.8314 29.6559 58.8314C46.0339 58.8314 59.3117 45.6612 59.3117 29.4157ZM2.69597 29.4157C2.69597 14.6463 14.7659 2.67414 29.6559 2.67414C44.5458 2.67414 56.6157 14.6463 56.6157 29.4157C56.6157 44.1851 44.5458 56.1573 29.6559 56.1573C14.7659 56.1573 2.69597 44.1851 2.69597 29.4157Z" fill="#F5F7F9"/>
<path d="M24.2198 39.2597H20.1169V26.1539H24.2198V39.2597ZM22.1662 24.3661C20.8542 24.3661 19.79 23.2882 19.79 21.9868C19.79 21.3617 20.0404 20.7622 20.486 20.3202C20.9316 19.8782 21.536 19.6299 22.1662 19.6299C22.7964 19.6299 23.4007 19.8782 23.8464 20.3202C24.292 20.7622 24.5423 21.3617 24.5423 21.9868C24.5423 23.2882 23.4777 24.3661 22.1662 24.3661ZM39.5757 39.2597H35.4816V32.8799C35.4816 31.3594 35.4507 29.4095 33.3485 29.4095C31.2153 29.4095 30.8884 31.0615 30.8884 32.7703V39.2597H26.7899V26.1539H30.7249V27.9416H30.7824C31.3301 26.9119 32.6682 25.8253 34.6644 25.8253C38.8168 25.8253 39.5801 28.5376 39.5801 32.0605V39.2597H39.5757Z" fill="#F5F7F9"/>
</svg>
