<svg width="271" height="200" viewBox="0 0 271 200" fill="none" xmlns="http://www.w3.org/2000/svg">
<rect width="271" height="200" rx="10" fill="white"/>
<path d="M55.1856 83.0681V73.6659H50.6041V83.0681H42V87.7125H50.6041V97.1147H55.1856V87.7125H63.7897V83.0681H55.1856Z" fill="black"/>
<path d="M93.1604 105.214V65.5664H85.1709L80.5894 86.8629H80.4777L75.8404 65.5664H68.0743V105.214H73.6614V77.6873H73.7732L78.6898 99.5502H82.2097L87.1264 77.6873H87.2381V105.214H93.1604Z" fill="black"/>
<path d="M116.206 71.1171V65.5664H99.5564V105.214H116.206V99.6635H105.479V87.8825H114.139V82.3318H105.479V71.1171H116.206Z" fill="black"/>
<path d="M140.158 105.214L133.397 65.5664H125.855L119.094 105.214H125.017L126.302 96.2085H132.838L134.124 105.214H140.158ZM129.486 74.0624H129.654L132.056 90.7711H127.084L129.486 74.0624Z" fill="black"/>
<path d="M163.682 105.214V65.5664H158.094V89.1852H157.983L150.999 65.5664H144.406V105.214H149.993V78.9334H150.105L157.871 105.214H163.682Z" fill="black"/>
<path d="M175.972 105.214V65.5664H170.05V105.214H175.972Z" fill="black"/>
<path d="M201.602 105.214V65.5664H196.015V89.1852H195.903L188.919 65.5664H182.326V85.3903V105.214H187.913V78.9334H188.025L195.791 105.214H201.602Z" fill="black"/>
<path d="M216.574 65C210.708 65 207.356 68.5117 207.356 74.5155V96.2651C207.356 102.269 210.708 105.781 216.574 105.781C222.497 105.781 225.905 102.269 225.905 96.2651V83.2946H216.742V88.8453H220.094V95.6421C220.094 98.8139 218.977 100.23 216.686 100.23C214.395 100.23 213.278 98.8139 213.278 96.2085V74.5721C213.278 71.9667 214.451 70.5507 216.742 70.5507C219.033 70.5507 220.206 71.9667 220.206 75.1385V77.5174L225.905 77.2342V74.5155C225.905 68.5117 222.497 65 216.574 65Z" fill="black"/>
<rect x="42" y="115.192" width="187.826" height="18.8218" rx="3" fill="#FFBD3A"/>
<path d="M57.3104 129.668L55.5427 119.648H53.5706L51.803 129.668H53.3515L53.6875 127.392H55.3967L55.7327 129.668H57.3104ZM54.5202 121.795H54.564L55.1921 126.018H53.892L54.5202 121.795Z" fill="black"/>
<path d="M59.5899 119.648V129.668H61.1384V125.517H61.825C63.4903 125.517 64.396 124.629 64.396 122.983V122.182C64.396 120.535 63.4903 119.648 61.825 119.648H59.5899ZM61.1384 121.051H61.7665C62.5116 121.051 62.8476 121.437 62.8476 122.282V122.883C62.8476 123.728 62.5116 124.114 61.7665 124.114H61.1384V121.051Z" fill="black"/>
<path d="M70.0528 129.668H71.689L70.272 125.102C70.9878 124.701 71.3676 123.957 71.3676 122.897V122.182C71.3676 120.535 70.4619 119.648 68.7965 119.648H66.5614V129.668H68.1099V125.431H68.8257L70.0528 129.668ZM68.1099 121.051H68.7381C69.4831 121.051 69.8191 121.437 69.8191 122.282V122.797C69.8191 123.642 69.4831 124.028 68.7381 124.028H68.1099V121.051Z" fill="black"/>
<path d="M78.3354 121.051V119.648H73.9821V129.668H78.3354V128.265H75.5306V125.288H77.7949V123.885H75.5306V121.051H78.3354Z" fill="black"/>
<path d="M85.8543 129.668V119.648H84.3934V125.617H84.3642L82.5382 119.648H80.8144V129.668H82.2752V123.026H82.3044L84.335 129.668H85.8543Z" fill="black"/>
<path d="M88.6881 119.648V129.668H90.9086C92.574 129.668 93.4797 128.781 93.4797 127.135V122.182C93.4797 120.535 92.574 119.648 90.9086 119.648H88.6881ZM90.2366 121.051H90.8502C91.5952 121.051 91.9312 121.437 91.9312 122.282V127.034C91.9312 127.879 91.5952 128.265 90.8502 128.265H90.2366V121.051Z" fill="black"/>
<path d="M97.6966 129.668V119.648H96.1481V129.668H97.6966Z" fill="black"/>
<path d="M104.5 120.908V119.648H100.118V121.051H102.82L99.9715 128.409V129.668H104.5V128.265H101.652L104.5 120.908Z" fill="black"/>
<path d="M111.755 129.668L109.987 119.648H108.015L106.247 129.668H107.796L108.132 127.392H109.841L110.177 129.668H111.755ZM108.965 121.795H109.008L109.637 126.018H108.336L108.965 121.795Z" fill="black"/>
<path d="M116.839 119.648H115.291V127.292C115.291 128.065 114.984 128.409 114.268 128.409C113.961 128.409 113.698 128.351 113.508 128.294L113.421 129.683C113.742 129.768 114.093 129.811 114.458 129.811C116.065 129.811 116.839 128.938 116.839 127.335V119.648Z" fill="black"/>
<path d="M123.95 121.051V119.648H119.597V129.668H123.95V128.265H121.145V125.288H123.41V123.885H121.145V121.051H123.95Z" fill="black"/>
<path d="M132.732 119.505C131.183 119.505 130.234 120.464 130.234 122.039V127.278C130.234 128.852 131.183 129.811 132.732 129.811C133.097 129.811 133.448 129.754 133.74 129.654C134.105 130.241 134.689 130.484 135.449 130.484L135.595 129.081C135.259 129.081 134.982 129.024 134.806 128.838C135.084 128.423 135.23 127.893 135.23 127.278V122.039C135.23 120.464 134.28 119.505 132.732 119.505ZM132.732 120.908C133.345 120.908 133.681 121.308 133.681 122.053V127.263C133.681 128.008 133.345 128.409 132.732 128.409C132.118 128.409 131.782 128.008 131.782 127.263V122.053C131.782 121.308 132.118 120.908 132.732 120.908Z" fill="black"/>
<path d="M142.587 119.648H141.038V127.378C141.038 128.108 140.702 128.38 140.162 128.38C139.621 128.38 139.285 128.108 139.285 127.378V119.648H137.795V127.421C137.795 128.995 138.715 129.811 140.176 129.811C141.666 129.811 142.587 128.995 142.587 127.421V119.648Z" fill="black"/>
<path d="M149.682 121.051V119.648H145.328V129.668H149.682V128.265H146.877V125.288H149.141V123.885H146.877V121.051H149.682Z" fill="black"/>
<path d="M160.061 121.079V119.648H155.211V121.079H156.861V129.668H158.41V121.079H160.061Z" fill="black"/>
<path d="M165.547 129.668H167.183L165.766 125.102C166.482 124.701 166.862 123.957 166.862 122.897V122.182C166.862 120.535 165.956 119.648 164.291 119.648H162.056V129.668H163.604V125.431H164.32L165.547 129.668ZM163.604 121.051H164.232C164.977 121.051 165.313 121.437 165.313 122.282V122.797C165.313 123.642 164.977 124.028 164.232 124.028H163.604V121.051Z" fill="black"/>
<path d="M174.429 129.668L172.661 119.648H170.689L168.921 129.668H170.47L170.806 127.392H172.515L172.851 129.668H174.429ZM171.638 121.795H171.682L172.31 126.018H171.01L171.638 121.795Z" fill="black"/>
<path d="M178.534 119.505C177.058 119.505 176.226 120.321 176.226 121.752V121.967C176.226 123.141 176.708 123.971 178.125 125.145C179.162 126.004 179.469 126.505 179.469 127.135V127.464C179.469 128.094 179.177 128.409 178.592 128.409C178.008 128.409 177.716 128.094 177.716 127.464V126.748L176.226 126.891V127.564C176.226 128.995 177.088 129.811 178.621 129.811C180.155 129.811 181.017 128.995 181.017 127.564V127.063C181.017 125.861 180.491 125.03 179.074 123.856C178.037 122.998 177.774 122.497 177.774 121.91V121.781C177.774 121.208 178.052 120.908 178.563 120.908C179.074 120.908 179.352 121.208 179.352 121.781V122.153L180.842 122.01V121.752C180.842 120.321 180.009 119.505 178.534 119.505Z" fill="black"/>
<path d="M185.404 119.505C183.9 119.505 183.023 120.392 183.023 121.91V127.407C183.023 128.924 183.9 129.811 185.404 129.811C186.924 129.811 187.815 128.924 187.815 127.407V126.204L186.325 126.133V127.249C186.325 128.051 186.018 128.409 185.448 128.409C184.878 128.409 184.572 128.051 184.572 127.392V121.924C184.572 121.266 184.878 120.908 185.448 120.908C186.018 120.908 186.325 121.266 186.325 122.067V122.883L187.815 122.812V121.91C187.815 120.392 186.924 119.505 185.404 119.505Z" fill="black"/>
<path d="M191.85 129.668V119.648H190.301V129.668H191.85Z" fill="black"/>
<path d="M199.033 121.051V119.648H194.68V129.668H199.033V128.265H196.228V125.288H198.493V123.885H196.228V121.051H199.033Z" fill="black"/>
<path d="M206.552 129.668V119.648H205.091V125.617H205.062L203.236 119.648H201.512V129.668H202.973V123.026H203.002L205.033 129.668H206.552Z" fill="black"/>
<path d="M209.386 119.648V129.668H211.606C213.272 129.668 214.178 128.781 214.178 127.135V122.182C214.178 120.535 213.272 119.648 211.606 119.648H209.386ZM210.934 121.051H211.548C212.293 121.051 212.629 121.437 212.629 122.282V127.034C212.629 127.879 212.293 128.265 211.548 128.265H210.934V121.051Z" fill="black"/>
<path d="M221.199 121.051V119.648H216.846V129.668H221.199V128.265H218.395V125.288H220.659V123.885H218.395V121.051H221.199Z" fill="black"/>
</svg>
