<svg width="148" height="148" viewBox="0 0 148 148" fill="none" xmlns="http://www.w3.org/2000/svg">
<path d="M45.1501 76.5328L38.9228 71.6892C38.5645 71.4107 38.1239 71.2593 37.6699 71.2593C36.5428 71.2593 35.6295 72.173 35.6295 73.2998V76.7408H32.8887C28.3549 76.7408 24.6665 80.4291 24.6665 84.963V93.1852C24.6665 94.6988 25.8937 95.9259 27.4072 95.9259C28.9208 95.9259 30.148 94.6988 30.148 93.1852V84.963C30.148 83.4518 31.3775 82.2222 32.8887 82.2222H35.6295V85.6629C35.6295 86.79 36.5432 87.7037 37.6699 87.7037C38.1239 87.7037 38.5645 87.5526 38.9228 87.2738L45.1501 82.4302C46.06 81.7224 46.5924 80.6343 46.5924 79.4815C46.5924 78.3287 46.06 77.2403 45.1501 76.5328Z" fill="#E4DEE5"/>
<path d="M120.592 52.0737C119.079 52.0737 117.852 53.3009 117.852 54.8145V63.0367C117.852 64.5479 116.622 65.7774 115.111 65.7774H112.37V62.3364C112.37 61.2096 111.456 60.296 110.33 60.296C109.876 60.296 109.435 60.447 109.077 60.7259L102.85 65.5695C101.94 66.2769 101.407 67.3653 101.407 68.5182C101.407 69.671 101.94 70.7594 102.85 71.4669L109.077 76.3104C109.435 76.589 109.876 76.7404 110.33 76.7404C111.457 76.7404 112.37 75.8267 112.37 74.6996V71.2589H115.111C119.644 71.2589 123.333 67.5706 123.333 63.0367V54.8145C123.333 53.3009 122.106 52.0737 120.592 52.0737Z" fill="#E4DEE5"/>
<path d="M93.1849 117.852H84.9627C83.4515 117.852 82.222 116.622 82.222 115.111V109.629H85.663C86.7901 109.629 87.7034 108.716 87.7034 107.589C87.7034 107.135 87.5523 106.694 87.2735 106.336L82.4299 100.108C81.7221 99.1984 80.6337 98.666 79.4809 98.666C78.328 98.666 77.2396 99.1984 76.5318 100.108L71.6883 106.336C71.4097 106.694 71.2583 107.135 71.2583 107.589C71.2583 108.716 72.172 109.629 73.2988 109.629H76.7405V115.111C76.7405 119.645 80.4292 123.333 84.9627 123.333H93.1849C94.6985 123.333 95.9257 122.106 95.9257 120.592C95.9257 119.079 94.6985 117.852 93.1849 117.852Z" fill="#E4DEE5"/>
<path d="M74.6999 38.3702H71.2589V32.8887C71.2589 28.3549 67.5706 24.6665 63.0367 24.6665H54.8145C53.3009 24.6665 52.0737 25.8937 52.0737 27.4072C52.0737 28.9208 53.3009 30.148 54.8145 30.148H63.0367C64.5479 30.148 65.7774 31.3776 65.7774 32.8887V38.3702H62.3364C61.2093 38.3702 60.296 39.2839 60.296 40.4107C60.296 40.8646 60.447 41.3052 60.7259 41.6636L65.5695 47.8909C66.2773 48.8008 67.3657 49.3332 68.5185 49.3332C69.6713 49.3332 70.7598 48.8008 71.4675 47.8909L76.3111 41.6636C76.5897 41.3052 76.7411 40.8643 76.7411 40.4107C76.7404 39.2839 75.8267 38.3702 74.6999 38.3702Z" fill="#E4DEE5"/>
<path d="M27.4074 52.0741C41.0304 52.0741 52.0741 41.0304 52.0741 27.4074C52.0741 13.7844 41.0304 2.74072 27.4074 2.74072C13.7844 2.74072 2.74072 13.7844 2.74072 27.4074C2.74072 41.0304 13.7844 52.0741 27.4074 52.0741Z" fill="#E4DEE5"/>
<path d="M27.4074 0C12.2706 0 0 12.2706 0 27.4074C0 42.5442 12.2706 54.8148 27.4074 54.8148C42.5442 54.8148 54.8148 42.5442 54.8148 27.4074C54.8148 12.2706 42.5442 0 27.4074 0ZM49.1559 24.6667H38.3156C38.0312 17.5031 36.6416 11.1565 34.5813 6.69323C42.3263 9.38327 48.1068 16.2975 49.1559 24.6667ZM27.4074 49.1774C26.7589 48.6207 25.4488 46.9581 24.223 43.3321C22.9736 39.6352 22.1997 35.0315 21.9876 30.1481H32.8272C32.6152 35.0315 31.8412 39.6356 30.5918 43.3321C29.366 46.9581 28.0559 48.6207 27.4074 49.1774ZM21.9876 24.6667C22.1997 19.7833 22.9736 15.1792 24.223 11.4827C25.4488 7.85667 26.7589 6.19407 27.4074 5.63736C28.0559 6.19407 29.366 7.85667 30.5918 11.4827C31.8412 15.1796 32.6152 19.7833 32.8272 24.6667H21.9876ZM20.2332 6.69323C18.1732 11.1565 16.7836 17.5031 16.4993 24.6667H5.65894C6.70796 16.2975 12.4885 9.38327 20.2332 6.69323ZM5.65894 30.1481H16.4993C16.784 37.3118 18.1732 43.6583 20.2335 48.1216C12.4885 45.4315 6.70796 38.5177 5.65894 30.1481ZM34.5816 48.1216C36.642 43.6579 38.0312 37.3114 38.3159 30.1481H49.1562C48.1068 38.5173 42.3263 45.4315 34.5816 48.1216Z" fill="#BFA8B9"/>
<path d="M120.592 52.0741C134.215 52.0741 145.259 41.0304 145.259 27.4074C145.259 13.7844 134.215 2.74072 120.592 2.74072C106.969 2.74072 95.9258 13.7844 95.9258 27.4074C95.9258 41.0304 106.969 52.0741 120.592 52.0741Z" fill="#E4DEE5"/>
<path d="M120.592 0C105.456 0 93.1851 12.2706 93.1851 27.4074C93.1851 42.5442 105.456 54.8148 120.592 54.8148C135.729 54.8148 148 42.5442 148 27.4074C148 12.2706 135.729 0 120.592 0ZM142.341 24.6667H131.501C131.216 17.5031 129.827 11.1565 127.766 6.69323C135.511 9.38327 141.292 16.2975 142.341 24.6667ZM120.592 49.1774C119.944 48.6207 118.634 46.9581 117.408 43.3321C116.159 39.6352 115.385 35.0315 115.173 30.1481H126.012C125.8 35.0315 125.026 39.6356 123.777 43.3321C122.551 46.9581 121.241 48.6207 120.592 49.1774ZM115.173 24.6667C115.385 19.7833 116.159 15.1792 117.408 11.4827C118.634 7.85667 119.944 6.19407 120.592 5.63736C121.241 6.19407 122.551 7.85667 123.777 11.4827C125.026 15.1796 125.8 19.7833 126.012 24.6667H115.173ZM113.418 6.69323C111.358 11.1565 109.969 17.5031 109.684 24.6667H98.844C99.893 16.2975 105.674 9.38327 113.418 6.69323ZM98.844 30.1481H109.684C109.969 37.3114 111.358 43.6583 113.419 48.1216C105.674 45.4315 99.893 38.5173 98.844 30.1481ZM127.767 48.1216C129.827 43.6579 131.216 37.3114 131.501 30.1481H142.341C141.292 38.5173 135.511 45.4315 127.767 48.1216Z" fill="#BFA8B9"/>
<path d="M27.4074 145.259C41.0304 145.259 52.0741 134.215 52.0741 120.592C52.0741 106.969 41.0304 95.9258 27.4074 95.9258C13.7844 95.9258 2.74072 106.969 2.74072 120.592C2.74072 134.215 13.7844 145.259 27.4074 145.259Z" fill="#E4DEE5"/>
<path d="M27.4074 93.1851C12.2706 93.1851 0 105.456 0 120.592C0 135.729 12.2706 148 27.4074 148C42.5442 148 54.8148 135.729 54.8148 120.592C54.8148 105.456 42.5442 93.1851 27.4074 93.1851ZM49.1559 117.852H38.3156C38.0312 110.688 36.6416 104.342 34.5813 99.8783C42.3263 102.568 48.1068 109.483 49.1559 117.852ZM27.4074 142.363C26.7589 141.806 25.4488 140.143 24.223 136.517C22.9736 132.82 22.1997 128.217 21.9876 123.333H32.8272C32.6152 128.217 31.8412 132.821 30.5918 136.517C29.366 140.143 28.0559 141.806 27.4074 142.363ZM21.9876 117.852C22.1997 112.968 22.9736 108.364 24.223 104.668C25.4488 101.042 26.7589 99.3791 27.4074 98.8224C28.0559 99.3791 29.366 101.042 30.5918 104.668C31.8412 108.365 32.6152 112.968 32.8272 117.852H21.9876ZM20.2332 99.8783C18.1732 104.342 16.7836 110.688 16.4993 117.852H5.65894C6.70796 109.483 12.4885 102.568 20.2332 99.8783ZM5.65894 123.333H16.4993C16.784 130.497 18.1732 136.843 20.2335 141.307C12.4885 138.617 6.70796 131.703 5.65894 123.333ZM34.5816 141.307C36.642 136.843 38.0312 130.496 38.3159 123.333H49.1562C48.1068 131.702 42.3263 138.617 34.5816 141.307Z" fill="#BFA8B9"/>
<path d="M120.592 145.259C134.215 145.259 145.259 134.215 145.259 120.592C145.259 106.969 134.215 95.9258 120.592 95.9258C106.969 95.9258 95.9258 106.969 95.9258 120.592C95.9258 134.215 106.969 145.259 120.592 145.259Z" fill="#E4DEE5"/>
<path d="M120.592 93.1851C105.456 93.1851 93.1851 105.456 93.1851 120.592C93.1851 135.729 105.456 148 120.592 148C135.729 148 148 135.729 148 120.592C148 105.456 135.729 93.1851 120.592 93.1851ZM142.341 117.852H131.501C131.216 110.688 129.827 104.342 127.766 99.8783C135.511 102.568 141.292 109.483 142.341 117.852ZM120.592 142.363C119.944 141.806 118.634 140.143 117.408 136.517C116.159 132.82 115.385 128.217 115.173 123.333H126.012C125.8 128.217 125.026 132.821 123.777 136.517C122.551 140.143 121.241 141.806 120.592 142.363ZM115.173 117.852C115.385 112.968 116.159 108.364 117.408 104.668C118.634 101.042 119.944 99.3791 120.592 98.8224C121.241 99.3791 122.551 101.042 123.777 104.668C125.026 108.365 125.8 112.968 126.012 117.852H115.173ZM113.418 99.8783C111.358 104.342 109.969 110.688 109.684 117.852H98.8437C99.893 109.483 105.674 102.568 113.418 99.8783ZM98.844 123.333H109.684C109.969 130.496 111.358 136.843 113.419 141.307C105.674 138.617 99.893 131.702 98.844 123.333ZM127.767 141.307C129.827 136.843 131.216 130.496 131.501 123.333H142.341C141.292 131.702 135.511 138.617 127.767 141.307Z" fill="#BFA8B9"/>
<path d="M95.9261 93.1853H52.0742C50.5607 93.1853 49.3335 91.9581 49.3335 90.4446V57.5557C49.3335 56.0421 50.5607 54.8149 52.0742 54.8149H65.7779L71.2594 60.2964H95.9261C97.4397 60.2964 98.6668 61.5236 98.6668 63.0372V90.4446C98.6668 91.9581 97.4397 93.1853 95.9261 93.1853Z" fill="#534559"/>
<path d="M93.1854 90.4446C93.1854 91.9581 94.4125 93.1853 95.9261 93.1853H52.0742C50.5607 93.1853 49.3335 91.9581 49.3335 90.4446V57.5557C49.3335 56.0421 50.5607 54.8149 52.0742 54.8149H65.7779L71.2594 60.2964H90.4446C91.9582 60.2964 93.1854 61.5236 93.1854 63.0372V90.4446Z" fill="#A68D9D"/>
</svg>
