<svg width="100" height="91" viewBox="0 0 100 91" fill="none" xmlns="http://www.w3.org/2000/svg">
<path d="M43.3333 69.4909H3.33333C1.49229 69.4909 0 68.0095 0 66.1818V3.30909C0 1.48144 1.49229 0 3.33333 0H43.3333C45.1744 0 46.6667 1.48144 46.6667 3.30909V66.1818C46.6667 68.0095 45.1744 69.4909 43.3333 69.4909Z" fill="#555A6E"/>
<path d="M36.6667 69.4909H3.33333C1.49229 69.4909 0 68.0095 0 66.1818V3.30909C0 1.48144 1.49229 0 3.33333 0H36.6667C38.5077 0 40 1.48144 40 3.30909V66.1818C40 68.0095 38.5077 69.4909 36.6667 69.4909Z" fill="#E4DEE5"/>
<path d="M31.6667 64.5272H8.33333C6.49229 64.5272 5 63.0458 5 61.2181V11.5818C5 9.75414 6.49229 8.27271 8.33333 8.27271H31.6667C33.5077 8.27271 35 9.75414 35 11.5818V61.2181C35 63.0458 33.5077 64.5272 31.6667 64.5272Z" fill="#A68D9D"/>
<path d="M25.8335 4.96363H14.1668C13.7066 4.96363 13.3335 4.59322 13.3335 4.13635C13.3335 3.67949 13.7066 3.30908 14.1668 3.30908H25.8335C26.2937 3.30908 26.6668 3.67949 26.6668 4.13635C26.6668 4.59322 26.2937 4.96363 25.8335 4.96363Z" fill="#555A6E"/>
<path d="M28.3333 39.7091H11.6667C10.7463 39.7091 10 38.9682 10 38.0545V14.8909C10 13.9772 10.7463 13.2363 11.6667 13.2363H28.3333C29.2538 13.2363 30 13.9772 30 14.8909V38.0545C30 38.9682 29.2538 39.7091 28.3333 39.7091Z" fill="#BFA8B9"/>
<path d="M16.6667 49.6365H11.6667C10.7463 49.6365 10 48.8957 10 47.9819V44.6729C10 43.7591 10.7463 43.0183 11.6667 43.0183H16.6667C17.5871 43.0183 18.3333 43.7591 18.3333 44.6729V47.9819C18.3333 48.8957 17.5871 49.6365 16.6667 49.6365Z" fill="#BFA8B9"/>
<path d="M28.3333 59.5635H11.6667C10.7463 59.5635 10 58.8227 10 57.9089V54.5999C10 53.6861 10.7463 52.9453 11.6667 52.9453H28.3333C29.2538 52.9453 30 53.6861 30 54.5999V57.9089C30 58.8227 29.2538 59.5635 28.3333 59.5635Z" fill="#E4DEE5"/>
<path d="M28.3332 49.6365H23.3332C22.4128 49.6365 21.6665 48.8957 21.6665 47.9819V44.6729C21.6665 43.7591 22.4128 43.0183 23.3332 43.0183H28.3332C29.2536 43.0183 29.9998 43.7591 29.9998 44.6729V47.9819C29.9998 48.8957 29.2536 49.6365 28.3332 49.6365Z" fill="#BFA8B9"/>
<path d="M96.6668 90.9999H56.6668C54.8258 90.9999 53.3335 89.5185 53.3335 87.6908V24.8181C53.3335 22.9905 54.8258 21.509 56.6668 21.509H96.6668C98.5079 21.509 100 22.9905 100 24.8181V87.6908C100 89.5185 98.5079 90.9999 96.6668 90.9999Z" fill="#555A6E"/>
<path d="M90.0002 90.9999H56.6668C54.8258 90.9999 53.3335 89.5185 53.3335 87.6908V24.8181C53.3335 22.9905 54.8258 21.509 56.6668 21.509H90.0002C91.8412 21.509 93.3335 22.9905 93.3335 24.8181V87.6908C93.3335 89.5185 91.8412 90.9999 90.0002 90.9999Z" fill="#E4DEE5"/>
<path d="M85.0002 86.0363H61.6668C59.8258 86.0363 58.3335 84.5548 58.3335 82.7272V33.0908C58.3335 31.2632 59.8258 29.7817 61.6668 29.7817H85.0002C86.8412 29.7817 88.3335 31.2632 88.3335 33.0908V82.7272C88.3335 84.5548 86.8412 86.0363 85.0002 86.0363Z" fill="#A68D9D"/>
<path d="M79.167 26.4727H67.5003C67.0401 26.4727 66.667 26.1023 66.667 25.6454C66.667 25.1885 67.0401 24.8181 67.5003 24.8181H79.167C79.6272 24.8181 80.0003 25.1885 80.0003 25.6454C80.0003 26.1023 79.6272 26.4727 79.167 26.4727Z" fill="#555A6E"/>
<path d="M73.3335 41.3635H65.0002C64.0797 41.3635 63.3335 40.6227 63.3335 39.709V36.3999C63.3335 35.4862 64.0797 34.7454 65.0002 34.7454H73.3335C74.2539 34.7454 75.0002 35.4862 75.0002 36.3999V39.709C75.0002 40.6227 74.2539 41.3635 73.3335 41.3635Z" fill="#BFA8B9"/>
<path d="M81.6668 51.2908H65.0002C64.0797 51.2908 63.3335 50.55 63.3335 49.6362V46.3272C63.3335 45.4134 64.0797 44.6726 65.0002 44.6726H81.6668C82.5873 44.6726 83.3335 45.4134 83.3335 46.3272V49.6362C83.3335 50.55 82.5873 51.2908 81.6668 51.2908Z" fill="#BFA8B9"/>
<path d="M81.6668 61.218H65.0002C64.0797 61.218 63.3335 60.4772 63.3335 59.5635V56.2544C63.3335 55.3407 64.0797 54.5999 65.0002 54.5999H81.6668C82.5873 54.5999 83.3335 55.3407 83.3335 56.2544V59.5635C83.3335 60.4772 82.5873 61.218 81.6668 61.218Z" fill="#BFA8B9"/>
<path d="M81.6668 71.1455H65.0002C64.0797 71.1455 63.3335 70.4047 63.3335 69.491V66.1819C63.3335 65.2682 64.0797 64.5273 65.0002 64.5273H81.6668C82.5873 64.5273 83.3335 65.2682 83.3335 66.1819V69.491C83.3335 70.4047 82.5873 71.1455 81.6668 71.1455Z" fill="#BFA8B9"/>
<path d="M81.6668 81.0728H65.0002C64.0797 81.0728 63.3335 80.3319 63.3335 79.4182V76.1091C63.3335 75.1954 64.0797 74.4546 65.0002 74.4546H81.6668C82.5873 74.4546 83.3335 75.1954 83.3335 76.1091V79.4182C83.3335 80.3319 82.5873 81.0728 81.6668 81.0728Z" fill="#E4DEE5"/>
<path d="M60.7897 56.1287L57.0029 53.2047C56.785 53.0366 56.517 52.9452 56.241 52.9452C55.5556 52.9452 55.0002 53.4968 55.0002 54.177V56.2545C52.2433 56.2545 50.0002 54.0279 50.0002 51.2908V33.0909C50.0002 28.5293 46.2618 24.8181 41.6668 24.8181H26.4558C25.7139 21.9669 23.1008 19.8545 20.0002 19.8545C16.3241 19.8545 13.3335 22.8234 13.3335 26.4727C13.3335 30.122 16.3241 33.0909 20.0002 33.0909C23.101 33.0909 25.7139 30.9784 26.4558 28.1272H41.6668C44.4237 28.1272 46.6668 30.3538 46.6668 33.0909V51.2908C46.6668 55.8524 50.4052 59.5636 55.0002 59.5636V61.6409C55.0002 62.3213 55.5558 62.8727 56.241 62.8727C56.517 62.8727 56.785 62.7812 57.0029 62.6131L60.7897 59.6891C61.3431 59.2618 61.6668 58.6048 61.6668 57.9088C61.6668 57.2129 61.3431 56.556 60.7897 56.1287ZM23.3335 26.4727C23.3335 28.2974 21.8381 29.7818 20.0002 29.7818C18.1622 29.7818 16.6668 28.2974 16.6668 26.4727C16.6668 24.6479 18.1622 23.1636 20.0002 23.1636C21.8381 23.1636 23.3335 24.6479 23.3335 26.4727Z" fill="#534559"/>
<path d="M20.0003 29.7818C21.8413 29.7818 23.3337 28.3002 23.3337 26.4727C23.3337 24.6451 21.8413 23.1636 20.0003 23.1636C18.1594 23.1636 16.667 24.6451 16.667 26.4727C16.667 28.3002 18.1594 29.7818 20.0003 29.7818Z" fill="#534559"/>
</svg>
