<svg width="66" height="66" viewBox="0 0 66 66" fill="none" xmlns="http://www.w3.org/2000/svg">
<path fill-rule="evenodd" clip-rule="evenodd" d="M0 10C0 4.47715 4.47715 0 10 0H56C61.5228 0 66 4.47715 66 10V56C66 61.5228 61.5229 66 56 66H10C4.47715 66 0 61.5229 0 56V10ZM24.9238 18.5594H13.0271V46.6215H18.4814V37.2147H25.1214C29.9847 37.2147 33.8562 32.9802 33.8562 27.8871C33.8562 23.5658 30.3689 18.5594 24.9238 18.5594ZM24.8052 32.4323H18.4814V23.3418H24.5681C26.883 23.3418 28.3229 25.5156 28.3229 27.8871C28.3229 30.6472 26.7185 32.4323 24.8052 32.4323ZM45.062 34.1536L45.0614 34.1535C43.9977 33.9217 41.247 33.3223 41.247 31.6024C41.247 30.0914 42.4873 29.2705 44.409 29.2705C47.0161 29.2705 49.3625 30.7724 50.4166 31.5629L52.5509 28.3614C51.4177 27.3603 48.9923 25.5157 44.4485 25.5157C40.1199 25.5157 36.3065 27.9711 36.3065 32.3534C36.3065 36.4298 41.1566 37.5372 43.1349 37.9889L43.1352 37.989C43.3657 38.0416 43.5572 38.0854 43.6975 38.1239C43.8609 38.1695 44.0381 38.2164 44.2245 38.2658C45.8716 38.702 48.2428 39.3301 48.2428 40.9301C48.2428 42.3809 46.8514 43.2225 44.8437 43.2225C41.7462 43.2225 38.8361 41.3913 37.5713 40.4953L35.5951 43.8153C36.7808 44.8429 40.1817 47.0168 44.9623 47.0168C47.5444 47.0168 53.3414 46.2098 53.3414 40.4558C53.3414 36.0271 47.8786 34.7935 45.8212 34.3289C45.617 34.2828 45.4464 34.2443 45.318 34.211C45.2509 34.1948 45.1643 34.1759 45.062 34.1536Z" fill="#181A26"/>
</svg>
