<svg width="157" height="148" viewBox="0 0 157 148" fill="none" xmlns="http://www.w3.org/2000/svg">
<path d="M151.187 98.6667H49.4791C46.4427 98.6667 43.9814 96.2127 43.9814 93.1852V5.48149C43.9814 2.45399 46.4427 0 49.4791 0H151.187C154.223 0 156.684 2.45399 156.684 5.48149V93.1852C156.684 96.2127 154.223 98.6667 151.187 98.6667Z" fill="#A68D9D"/>
<path d="M142.94 98.6667H49.4791C46.4427 98.6667 43.9814 96.2127 43.9814 93.1852V5.48149C43.9814 2.45399 46.4427 0 49.4791 0H142.94C145.977 0 148.438 2.45399 148.438 5.48149V93.1852C148.438 96.2127 145.977 98.6667 142.94 98.6667Z" fill="#E4DEE5"/>
<path d="M68.7211 35.6295H57.7257C54.6893 35.6295 52.228 33.1755 52.228 30.148V24.6665C52.228 21.6391 54.6893 19.1851 57.7257 19.1851H68.7211C71.7576 19.1851 74.2188 21.6391 74.2188 24.6665V30.148C74.2188 33.1755 71.7576 35.6295 68.7211 35.6295Z" fill="#A68D9D"/>
<path d="M101.707 35.6295H90.7121C87.6756 35.6295 85.2144 33.1755 85.2144 30.148V24.6665C85.2144 21.6391 87.6756 19.1851 90.7121 19.1851H101.707C104.744 19.1851 107.205 21.6391 107.205 24.6665V30.148C107.205 33.1755 104.744 35.6295 101.707 35.6295Z" fill="#A68D9D"/>
<path d="M134.694 35.6295H123.698C120.662 35.6295 118.201 33.1755 118.201 30.148V24.6665C118.201 21.6391 120.662 19.1851 123.698 19.1851H134.694C137.73 19.1851 140.191 21.6391 140.191 24.6665V30.148C140.191 33.1755 137.73 35.6295 134.694 35.6295Z" fill="#A68D9D"/>
<path d="M156.684 10.963H43.9814V5.48149C43.9814 2.45399 46.4427 0 49.4791 0H151.187C154.223 0 156.684 2.45399 156.684 5.48149V10.963Z" fill="#534559"/>
<path d="M148.438 10.963H43.9814V5.48149C43.9814 2.45399 46.4427 0 49.4791 0H142.94C145.977 0 148.438 2.45399 148.438 5.48149V10.963Z" fill="#534559"/>
<path d="M54.9769 8.22221C56.495 8.22221 57.7257 6.99514 57.7257 5.48147C57.7257 3.9678 56.495 2.74072 54.9769 2.74072C53.4587 2.74072 52.228 3.9678 52.228 5.48147C52.228 6.99514 53.4587 8.22221 54.9769 8.22221Z" fill="#A68D9D"/>
<path d="M65.972 8.22221C67.4901 8.22221 68.7208 6.99514 68.7208 5.48147C68.7208 3.9678 67.4901 2.74072 65.972 2.74072C64.4538 2.74072 63.2231 3.9678 63.2231 5.48147C63.2231 6.99514 64.4538 8.22221 65.972 8.22221Z" fill="#534559"/>
<path d="M76.9676 8.22221C78.4858 8.22221 79.7165 6.99514 79.7165 5.48147C79.7165 3.9678 78.4858 2.74072 76.9676 2.74072C75.4495 2.74072 74.2188 3.9678 74.2188 5.48147C74.2188 6.99514 75.4495 8.22221 76.9676 8.22221Z" fill="#E4DEE5"/>
<path d="M134.694 90.4447H57.7257C54.6893 90.4447 52.228 87.9907 52.228 84.9632V46.5928C52.228 43.5653 54.6893 41.1113 57.7257 41.1113H134.694C137.73 41.1113 140.191 43.5653 140.191 46.5928V84.9632C140.191 87.9907 137.73 90.4447 134.694 90.4447Z" fill="#BFA8B9"/>
<path d="M107.205 148H5.4977C2.46125 148 0 145.546 0 142.519V54.815C0 51.7875 2.46125 49.3335 5.4977 49.3335H107.205C110.242 49.3335 112.703 51.7875 112.703 54.815V142.519C112.703 145.546 110.242 148 107.205 148Z" fill="#A68D9D"/>
<path d="M98.9587 148H5.4977C2.46125 148 0 145.546 0 142.519V54.815C0 51.7875 2.46125 49.3335 5.4977 49.3335H98.9587C101.995 49.3335 104.456 51.7875 104.456 54.815V142.519C104.456 145.546 101.995 148 98.9587 148Z" fill="#E4DEE5"/>
<path d="M112.703 60.2965H0V54.815C0 51.7875 2.46125 49.3335 5.4977 49.3335H107.205C110.242 49.3335 112.703 51.7875 112.703 54.815V60.2965Z" fill="#534559"/>
<path d="M104.456 60.2965H0V54.815C0 51.7875 2.46125 49.3335 5.4977 49.3335H98.9587C101.995 49.3335 104.456 51.7875 104.456 54.815V60.2965Z" fill="#534559"/>
<path d="M10.9954 57.5557C12.5136 57.5557 13.7443 56.3286 13.7443 54.815C13.7443 53.3013 12.5136 52.0742 10.9954 52.0742C9.47728 52.0742 8.24658 53.3013 8.24658 54.815C8.24658 56.3286 9.47728 57.5557 10.9954 57.5557Z" fill="#A68D9D"/>
<path d="M21.991 57.5557C23.5092 57.5557 24.7399 56.3286 24.7399 54.815C24.7399 53.3013 23.5092 52.0742 21.991 52.0742C20.4729 52.0742 19.2422 53.3013 19.2422 54.815C19.2422 56.3286 20.4729 57.5557 21.991 57.5557Z" fill="#534559"/>
<path d="M32.9862 57.5557C34.5043 57.5557 35.735 56.3286 35.735 54.815C35.735 53.3013 34.5043 52.0742 32.9862 52.0742C31.468 52.0742 30.2373 53.3013 30.2373 54.815C30.2373 56.3286 31.468 57.5557 32.9862 57.5557Z" fill="#E4DEE5"/>
<path d="M24.7397 84.963H13.7443C10.7078 84.963 8.24658 82.509 8.24658 79.4815V74C8.24658 70.9725 10.7078 68.5186 13.7443 68.5186H24.7397C27.7761 68.5186 30.2374 70.9725 30.2374 74V79.4815C30.2374 82.509 27.7761 84.963 24.7397 84.963Z" fill="#534559"/>
<path d="M57.726 84.963H46.7306C43.6942 84.963 41.2329 82.509 41.2329 79.4815V74C41.2329 70.9725 43.6942 68.5186 46.7306 68.5186H57.726C60.7625 68.5186 63.2237 70.9725 63.2237 74V79.4815C63.2237 82.509 60.7625 84.963 57.726 84.963Z" fill="#534559"/>
<path d="M90.7119 68.5183H87.963V41.1109H91.4142C92.5447 41.1109 93.4607 40.1972 93.4607 39.0704C93.4607 38.6165 93.3092 38.1759 93.0295 37.8176L88.1716 31.5903C87.4617 30.6803 86.37 30.1479 85.2138 30.1479C84.0576 30.1479 82.9659 30.6803 82.256 31.5903L77.3981 37.8176C77.1188 38.1759 76.9669 38.6165 76.9669 39.0704C76.9669 40.1972 77.8833 41.1109 79.0134 41.1109H82.4653V68.5183H79.7165C76.68 68.5183 74.2188 70.9723 74.2188 73.9998V79.4813C74.2188 82.5088 76.68 84.9628 79.7165 84.9628H90.7119C93.7483 84.9628 96.2096 82.5088 96.2096 79.4813V73.9998C96.2096 70.9723 93.7483 68.5183 90.7119 68.5183Z" fill="#534559"/>
<path d="M90.7121 139.778H13.7443C10.7078 139.778 8.24658 137.324 8.24658 134.296V95.9258C8.24658 92.8983 10.7078 90.4443 13.7443 90.4443H90.7121C93.7486 90.4443 96.2098 92.8983 96.2098 95.9258V134.296C96.2098 137.324 93.7486 139.778 90.7121 139.778Z" fill="#BFA8B9"/>
<path d="M129.864 99.3323L118.201 87.7037L121.973 83.9424C125.653 80.2732 123.047 74 117.843 74H89.2522C87.4689 74 85.6993 74.4464 84.1837 75.383C81.361 77.1275 79.7168 80.1626 79.7168 83.3661V101.05C79.7168 104.561 82.5976 106.883 85.6007 106.883L85.6004 106.886H96.5958L96.5961 106.883C97.2658 106.883 97.9403 106.766 98.5914 106.522L105.262 113.173C106.506 114.414 108.194 115.111 109.954 115.111H120.95C122.71 115.111 124.398 114.414 125.642 113.173L130.001 108.827C131.586 107.247 132.287 104.949 131.785 102.699C131.498 101.416 130.796 100.262 129.864 99.3323Z" fill="#534559"/>
<path d="M119.006 99.4694L107.205 87.7037L110.978 83.9424C114.658 80.2732 112.052 74 106.847 74H89.0931C86.6064 74 84.2222 74.986 82.4656 76.7407C80.7054 78.4989 79.7168 80.882 79.7168 83.3661V101.05C79.7168 106.239 86.0086 108.838 89.6886 105.169L93.4611 101.407L105.262 113.173C106.506 114.414 108.194 115.111 109.954 115.111C111.714 115.111 113.402 114.414 114.647 113.173L119.006 108.827C120.25 107.586 120.95 105.903 120.95 104.148C120.95 102.393 120.25 100.71 119.006 99.4694Z" fill="#E4DEE5"/>
</svg>
