<svg width="271" height="200" viewBox="0 0 271 200" fill="none" xmlns="http://www.w3.org/2000/svg">
<rect width="271" height="200" rx="10" fill="white"/>
<path d="M81.8464 133H97.7477V85.5716H81.8464V133V133Z" fill="#0061A1"/>
<path d="M81.9944 73.6933C81.9944 69.3116 85.5557 65.7634 89.9462 65.7634C94.3366 65.7634 97.8957 69.3116 97.8957 73.6933C97.8957 78.068 94.3366 81.6185 89.9462 81.6185C85.5557 81.6185 81.9944 78.068 81.9944 73.6933Z" fill="#E9500D"/>
<path d="M105.697 133H121.599V85.5716H105.697V133Z" fill="#0061A1"/>
<path d="M105.697 73.6933C105.697 69.3116 109.258 65.7634 113.646 65.7634C118.037 65.7634 121.598 69.3116 121.598 73.6933C121.598 78.068 118.037 81.6185 113.646 81.6185C109.258 81.6185 105.697 78.068 105.697 73.6933Z" fill="#E9500D"/>
<path d="M58.1492 65.7641H74.0482V81.6124H58.1492V65.7641V65.7641Z" fill="#0061A1"/>
<path d="M44.4758 81.6135H58.1486C58.1486 81.6135 57.7776 82.7438 57.7776 84.3398C57.7776 86.3239 58.4532 88.4771 60.4458 90.4818C65.8416 95.9092 68.2441 97.6422 72.0139 102.38C74.1026 105.01 75.3897 108.812 75.3897 113.312C75.3897 119.671 72.4788 124.827 69.135 127.834C65.7569 130.878 61.0023 132.857 56.6462 132.857C53.1055 132.857 49.07 132.081 46.6011 130.814C43.4933 129.222 42 128.204 42 128.204V114.685C42 114.685 43.436 115.915 46.0904 117.411C48.0165 118.495 50.0388 119.347 52.991 119.543C55.5377 119.715 58.0502 119.219 59.6717 117.42C61.0412 115.892 61.2199 114.05 61.2199 112.63C61.2199 111.148 60.7573 109.917 60.0793 108.712C56.8707 102.99 48.7998 99.0647 45.724 93.482C43.2001 88.9063 44.4758 81.6135 44.4758 81.6135Z" fill="#0061A1"/>
<path d="M146.7 82.6125V85.1332C144.985 84.366 143.615 83.9779 142.598 83.9779C142.021 83.9779 141.556 84.0761 141.213 84.2701C140.869 84.4642 140.702 84.7199 140.702 85.0396C140.702 85.2885 140.823 85.5214 141.071 85.7429C141.318 85.9643 141.923 86.252 142.878 86.6014C143.83 86.953 144.6 87.2795 145.173 87.5786C145.747 87.88 146.242 88.3047 146.659 88.8573C147.08 89.4052 147.284 90.0925 147.284 90.9328C147.284 92.1269 146.831 93.079 145.919 93.7846C145.01 94.4924 143.805 94.844 142.321 94.844C140.713 94.844 139.161 94.4308 137.654 93.6019V90.8209C138.517 91.4008 139.282 91.821 139.948 92.0835C140.617 92.353 141.325 92.4831 142.071 92.4831C143.336 92.4831 143.97 92.0835 143.97 91.2958C143.97 91.0218 143.842 90.7684 143.585 90.5263C143.336 90.2889 142.724 89.9966 141.762 89.6496C140.794 89.3093 140.029 88.9874 139.463 88.6906C138.899 88.3937 138.409 87.9736 137.997 87.4234C137.589 86.8776 137.386 86.1767 137.386 85.3204C137.386 84.2085 137.83 83.318 138.725 82.6353C139.623 81.9549 140.821 81.617 142.321 81.617C143.704 81.617 145.166 81.948 146.7 82.6125Z" fill="#706F6F"/>
<path d="M151.433 89.3151H155.23C155.083 88.0478 154.449 87.4154 153.334 87.4154C152.202 87.4154 151.57 88.0478 151.433 89.3151ZM157.5 91.9751V93.7013C156.448 94.4684 155.152 94.8452 153.599 94.8452C152.065 94.8452 150.835 94.4342 149.914 93.6145C148.994 92.7902 148.531 91.7011 148.531 90.3471C148.531 89.0137 148.964 87.9223 149.83 87.066C150.698 86.2098 151.797 85.7783 153.137 85.7783C154.486 85.7783 155.585 86.2304 156.448 87.1323C157.307 88.0341 157.715 89.242 157.658 90.7581H151.376C151.433 91.5504 151.714 92.1555 152.221 92.5847C152.724 93.0094 153.409 93.2241 154.259 93.2241C155.292 93.2241 156.373 92.8062 157.5 91.9751Z" fill="#706F6F"/>
<path d="M162.042 85.9639V88.4595H162.079C162.876 86.674 163.803 85.7789 164.866 85.7789C165.372 85.7789 165.979 86.0438 166.691 86.5758L165.933 89.0006C165.253 88.5714 164.708 88.359 164.302 88.359C163.668 88.359 163.13 88.7495 162.695 89.5327C162.26 90.3227 162.042 90.7793 162.042 90.9095V94.6815H159.287V85.9639H162.042Z" fill="#706F6F"/>
<path d="M171.028 94.8449L166.986 85.963H169.936L171.786 90.767L173.674 85.963H176.591L172.567 94.8449H171.028Z" fill="#706F6F"/>
<path d="M180.323 94.6819H177.568V85.9643H180.323V94.6819ZM177.421 83.1285C177.421 82.7106 177.568 82.3567 177.866 82.0576C178.163 81.7631 178.518 81.617 178.931 81.617C179.35 81.617 179.709 81.7631 180.007 82.0576C180.305 82.3567 180.451 82.7106 180.451 83.1285C180.451 83.5395 180.305 83.898 180.007 84.1971C179.709 84.4962 179.35 84.6469 178.931 84.6469C178.518 84.6469 178.163 84.4962 177.866 84.1971C177.568 83.898 177.421 83.5395 177.421 83.1285Z" fill="#706F6F"/>
<path d="M189.892 92.2986V94.2668C188.82 94.6527 187.835 94.8445 186.938 94.8445C185.403 94.8445 184.176 94.4358 183.253 93.6138C182.332 92.7918 181.872 91.7004 181.872 90.3487C181.872 89.0198 182.339 87.9307 183.266 87.0699C184.198 86.2137 185.38 85.7798 186.816 85.7798C187.744 85.7798 188.726 85.9694 189.764 86.3529V88.3919C189.006 88.006 188.259 87.812 187.522 87.812C186.702 87.812 186.044 88.0403 185.55 88.497C185.055 88.949 184.81 89.5632 184.81 90.3281C184.81 91.0999 185.05 91.7187 185.529 92.1913C186.015 92.6617 186.647 92.9014 187.43 92.9014C188.009 92.9014 188.832 92.7005 189.892 92.2986" fill="#706F6F"/>
<path d="M194.285 94.6819H191.532V85.9643H194.285V94.6819ZM191.383 83.1285C191.383 82.7106 191.534 82.3567 191.827 82.0576C192.125 81.7631 192.48 81.617 192.894 81.617C193.314 81.617 193.671 81.7631 193.969 82.0576C194.266 82.3567 194.413 82.7106 194.413 83.1285C194.413 83.5395 194.266 83.898 193.969 84.1971C193.671 84.4962 193.314 84.6469 192.894 84.6469C192.48 84.6469 192.125 84.4962 191.827 84.1971C191.534 83.898 191.383 83.5395 191.383 83.1285Z" fill="#706F6F"/>
<path d="M200.754 93.2241C202.068 93.2241 202.726 92.2308 202.726 90.2535C202.726 88.3607 202.068 87.4154 200.754 87.4154C200.124 87.4154 199.632 87.662 199.277 88.1643C198.919 88.6621 198.747 89.3744 198.747 90.3129C198.747 92.2514 199.416 93.2241 200.754 93.2241ZM200.754 85.7783C202.128 85.7783 203.284 86.1801 204.24 86.9816C205.192 87.7807 205.673 88.8972 205.673 90.3266C205.673 91.7628 205.188 92.877 204.221 93.6624C203.248 94.457 202.091 94.8452 200.754 94.8452C199.304 94.8452 198.115 94.4296 197.192 93.5848C196.274 92.7423 195.807 91.6509 195.807 90.3129C195.807 88.9383 196.279 87.8469 197.22 87.0181C198.161 86.1938 199.338 85.7783 200.754 85.7783" fill="#706F6F"/>
<path d="M217.03 92.3498V88.2901C216.544 87.9567 216.042 87.7946 215.532 87.7946C214.856 87.7946 214.332 88.0275 213.954 88.4956C213.583 88.9659 213.393 89.6235 213.393 90.4683C213.393 91.2469 213.578 91.8748 213.951 92.3452C214.322 92.8156 214.822 93.053 215.442 93.053C215.987 93.053 216.519 92.8178 217.03 92.3498V92.3498ZM219.714 82.1024V94.681H217.03V93.996C216.342 94.56 215.555 94.8454 214.664 94.8454C213.528 94.8454 212.58 94.4207 211.815 93.5805C211.054 92.7402 210.674 91.6831 210.674 90.4158C210.674 89.1189 211.061 88.0618 211.833 87.2375C212.607 86.4155 213.596 86.0022 214.81 86.0022C215.559 86.0022 216.304 86.1826 217.03 86.5388V82.1024H219.714V82.1024Z" fill="#706F6F"/>
<path d="M223.754 89.4488H227.452C227.31 88.2113 226.694 87.5971 225.604 87.5971C224.505 87.5971 223.889 88.2113 223.754 89.4488ZM229.669 92.0449V93.7277C228.646 94.4698 227.379 94.8442 225.868 94.8442C224.367 94.8442 223.17 94.4424 222.274 93.6387C221.374 92.8372 220.925 91.7778 220.925 90.4535C220.925 89.1566 221.351 88.0926 222.189 87.2523C223.034 86.4189 224.109 86.0011 225.416 86.0011C226.729 86.0011 227.805 86.4395 228.643 87.3208C229.484 88.1999 229.878 89.3758 229.821 90.8531H223.699C223.754 91.6248 224.028 92.2207 224.523 92.6363C225.013 93.0519 225.677 93.2596 226.509 93.2596C227.512 93.2596 228.57 92.8555 229.669 92.0449Z" fill="#706F6F"/>
<path d="M140.686 111.478H137.385V98.269H140.686V111.478Z" fill="#706F6F"/>
<path d="M146.338 102.553V103.695C147.293 102.807 148.333 102.364 149.45 102.364C150.992 102.364 152.063 102.994 152.679 104.263C153.76 102.994 154.94 102.364 156.211 102.364C157.242 102.364 158.082 102.677 158.735 103.302C159.385 103.923 159.711 104.738 159.711 105.743V111.476H156.896V106.241C156.896 105.615 156.752 105.122 156.458 104.773C156.168 104.419 155.76 104.247 155.24 104.247C154.415 104.247 153.676 104.752 153.016 105.761V111.476H150.208V106.188C150.208 105.56 150.05 105.081 149.739 104.748C149.427 104.412 149.01 104.247 148.493 104.247C147.751 104.247 147.032 104.656 146.338 105.485V111.476H143.518V102.553H146.338Z" fill="#706F6F"/>
<path d="M164.841 105.077V109.181C165.37 109.573 165.913 109.77 166.472 109.77C167.154 109.77 167.697 109.523 168.098 109.034C168.496 108.548 168.7 107.886 168.7 107.053C168.7 106.203 168.515 105.541 168.146 105.071C167.777 104.593 167.255 104.361 166.586 104.361C166.021 104.361 165.441 104.6 164.841 105.077ZM164.841 102.554V103.328C165.59 102.687 166.444 102.365 167.399 102.365C168.565 102.365 169.548 102.803 170.352 103.68C171.155 104.555 171.554 105.635 171.554 106.906C171.554 108.34 171.151 109.489 170.345 110.354C169.541 111.217 168.473 111.651 167.143 111.651C166.323 111.651 165.556 111.446 164.841 111.035V115.937H162.022V102.554H164.841V102.554Z" fill="#706F6F"/>
<path d="M179.541 111.477V110.2C178.712 111.166 177.748 111.65 176.646 111.65C175.675 111.65 174.882 111.349 174.276 110.751C173.669 110.153 173.366 109.324 173.366 108.267V102.554H176.186V108.07C176.186 109.2 176.655 109.769 177.596 109.769C178.13 109.769 178.581 109.561 178.957 109.146C179.335 108.739 179.523 108.431 179.523 108.237V102.554H182.358V111.477H179.541Z" fill="#706F6F"/>
<path d="M187.191 105.985H191.078C190.929 104.69 190.278 104.035 189.136 104.035C187.977 104.035 187.329 104.69 187.191 105.985ZM193.4 108.709V110.478C192.328 111.259 190.995 111.65 189.413 111.65C187.837 111.65 186.577 111.23 185.634 110.387C184.693 109.544 184.223 108.426 184.223 107.04C184.223 105.677 184.663 104.556 185.549 103.679C186.433 102.802 187.562 102.364 188.939 102.364C190.315 102.364 191.444 102.825 192.326 103.75C193.21 104.672 193.62 105.912 193.563 107.46H187.134C187.191 108.27 187.477 108.894 187.995 109.332C188.515 109.768 189.211 109.985 190.082 109.985C191.142 109.985 192.248 109.558 193.4 108.709" fill="#706F6F"/>
<path d="M201.619 103.026V105.022C200.548 104.366 199.551 104.033 198.635 104.033C197.96 104.033 197.618 104.268 197.618 104.727C197.618 104.848 197.692 104.964 197.834 105.081C197.98 105.2 198.521 105.446 199.471 105.823C200.422 106.2 201.088 106.631 201.48 107.124C201.871 107.615 202.071 108.156 202.071 108.746C202.071 109.673 201.754 110.39 201.12 110.894C200.486 111.396 199.586 111.65 198.418 111.65C197.217 111.65 196.146 111.435 195.211 110.999V109.022C196.363 109.526 197.325 109.778 198.104 109.778C199.013 109.778 199.471 109.556 199.471 109.118C199.471 108.946 199.386 108.787 199.217 108.636C199.047 108.485 198.482 108.22 197.524 107.848C196.562 107.471 195.907 107.063 195.552 106.613C195.197 106.168 195.023 105.665 195.023 105.12C195.023 104.305 195.362 103.642 196.04 103.131C196.718 102.617 197.616 102.364 198.729 102.364C199.796 102.364 200.763 102.588 201.619 103.026Z" fill="#706F6F"/>
<path d="M210.241 102.553V104.474H206.982V108.152C206.982 108.593 207.101 108.94 207.344 109.195C207.587 109.451 207.924 109.577 208.357 109.577C208.936 109.577 209.568 109.408 210.241 109.058V111.093C209.344 111.463 208.476 111.65 207.637 111.65C206.536 111.65 205.682 111.367 205.072 110.798C204.468 110.232 204.163 109.401 204.163 108.303V104.474H202.883V103.923L206.627 99.7471H206.982V102.553H210.241Z" fill="#706F6F"/>
<path d="M216.315 109.985C217.662 109.985 218.337 108.974 218.337 106.944C218.337 105.008 217.662 104.035 216.315 104.035C215.671 104.035 215.167 104.295 214.801 104.804C214.437 105.318 214.256 106.049 214.256 107.003C214.256 108.992 214.943 109.985 216.315 109.985ZM216.315 102.364C217.719 102.364 218.91 102.777 219.888 103.597C220.863 104.414 221.353 105.558 221.353 107.021C221.353 108.492 220.856 109.631 219.865 110.44C218.868 111.248 217.689 111.65 216.315 111.65C214.828 111.65 213.612 111.22 212.669 110.36C211.725 109.494 211.251 108.38 211.251 107.003C211.251 105.604 211.734 104.478 212.696 103.631C213.658 102.788 214.867 102.364 216.315 102.364" fill="#706F6F"/>
<path d="M229.334 103.026V105.022C228.257 104.366 227.266 104.033 226.345 104.033C225.669 104.033 225.33 104.268 225.33 104.727C225.33 104.848 225.401 104.964 225.543 105.081C225.688 105.2 226.233 105.446 227.181 105.823C228.131 106.2 228.802 106.631 229.192 107.124C229.586 107.615 229.778 108.156 229.778 108.746C229.778 109.673 229.467 110.39 228.832 110.894C228.2 111.396 227.3 111.65 226.13 111.65C224.927 111.65 223.86 111.435 222.921 110.999V109.022C224.073 109.526 225.035 109.778 225.816 109.778C226.725 109.778 227.181 109.556 227.181 109.118C227.181 108.946 227.096 108.787 226.929 108.636C226.76 108.485 226.194 108.22 225.234 107.848C224.277 107.471 223.617 107.063 223.265 106.613C222.91 106.168 222.733 105.665 222.733 105.12C222.733 104.305 223.072 103.642 223.752 103.131C224.433 102.617 225.328 102.364 226.441 102.364C227.511 102.364 228.475 102.588 229.334 103.026Z" fill="#706F6F"/>
<path d="M140.686 128.226H137.385V115.015H140.686V128.226V128.226Z" fill="#706F6F"/>
<path d="M146.299 119.299V120.566C147.13 119.593 148.099 119.107 149.21 119.107C150.144 119.107 150.92 119.404 151.541 120C152.164 120.591 152.475 121.441 152.475 122.546V128.224H149.656V122.783C149.656 121.587 149.194 120.991 148.261 120.991C147.602 120.991 146.947 121.482 146.299 122.466V128.224H143.484V119.299H146.299Z" fill="#706F6F"/>
<path d="M161.128 119.299V121.219H157.867V124.895C157.867 125.338 157.986 125.688 158.233 125.943C158.474 126.197 158.811 126.325 159.241 126.325C159.823 126.325 160.453 126.151 161.128 125.806V127.838C160.233 128.211 159.363 128.398 158.52 128.398C157.418 128.398 156.566 128.11 155.962 127.546C155.355 126.975 155.048 126.142 155.048 125.05V121.219H153.767V120.669L157.514 116.493H157.867V119.299H161.128Z" fill="#706F6F"/>
<path d="M165.118 122.733H169.007C168.856 121.434 168.208 120.783 167.063 120.783C165.906 120.783 165.258 121.434 165.118 122.733ZM171.332 125.452V127.222C170.256 128.007 168.925 128.398 167.338 128.398C165.762 128.398 164.505 127.975 163.561 127.133C162.622 126.29 162.148 125.174 162.148 123.785C162.148 122.422 162.592 121.299 163.476 120.424C164.365 119.548 165.492 119.107 166.864 119.107C168.242 119.107 169.371 119.573 170.253 120.495C171.137 121.418 171.55 122.655 171.492 124.208H165.063C165.118 125.018 165.405 125.639 165.927 126.078C166.442 126.514 167.138 126.731 168.013 126.731C169.069 126.731 170.175 126.304 171.332 125.452Z" fill="#706F6F"/>
<path d="M176.275 119.299V121.852H176.31C177.127 120.023 178.078 119.107 179.166 119.107C179.686 119.107 180.306 119.379 181.032 119.918L180.256 122.409C179.56 121.97 179.005 121.747 178.589 121.747C177.934 121.747 177.389 122.151 176.94 122.957C176.498 123.76 176.275 124.229 176.275 124.363V128.224H173.454V119.299H176.275Z" fill="#706F6F"/>
<path d="M185.046 119.299V120.566C185.873 119.593 186.844 119.107 187.957 119.107C188.887 119.107 189.666 119.404 190.289 120C190.912 120.591 191.221 121.441 191.221 122.546V128.224H188.404V122.783C188.404 121.587 187.941 120.991 187.009 120.991C186.347 120.991 185.69 121.482 185.046 122.466V128.224H182.229V119.299H185.046Z" fill="#706F6F"/>
<path d="M198.117 126.731C199.466 126.731 200.137 125.722 200.137 123.692C200.137 121.751 199.466 120.785 198.117 120.785C197.471 120.785 196.969 121.039 196.603 121.55C196.239 122.061 196.06 122.794 196.06 123.747C196.06 125.735 196.743 126.731 198.117 126.731ZM198.117 119.107C199.521 119.107 200.707 119.518 201.69 120.34C202.663 121.16 203.155 122.304 203.155 123.767C203.155 125.238 202.658 126.379 201.664 127.185C200.668 127.993 199.489 128.398 198.117 128.398C196.63 128.398 195.414 127.966 194.471 127.103C193.525 126.242 193.048 125.126 193.048 123.747C193.048 122.347 193.536 121.224 194.496 120.381C195.465 119.534 196.672 119.107 198.117 119.107" fill="#706F6F"/>
<path d="M211.134 119.772V121.767C210.06 121.112 209.061 120.783 208.145 120.783C207.469 120.783 207.13 121.014 207.13 121.473C207.13 121.594 207.201 121.712 207.346 121.826C207.488 121.943 208.033 122.194 208.983 122.566C209.929 122.943 210.6 123.377 210.992 123.87C211.386 124.363 211.58 124.902 211.58 125.491C211.58 126.416 211.262 127.135 210.632 127.64C209.998 128.142 209.098 128.398 207.928 128.398C206.727 128.398 205.658 128.181 204.723 127.742V125.765C205.875 126.274 206.837 126.523 207.616 126.523C208.525 126.523 208.981 126.304 208.981 125.863C208.981 125.694 208.896 125.532 208.729 125.382C208.562 125.233 207.999 124.968 207.032 124.592C206.077 124.219 205.417 123.808 205.065 123.361C204.712 122.913 204.533 122.413 204.533 121.865C204.533 121.05 204.872 120.39 205.552 119.877C206.233 119.365 207.128 119.107 208.244 119.107C209.311 119.107 210.275 119.331 211.134 119.772Z" fill="#706F6F"/>
</svg>
