<svg width="66" height="66" viewBox="0 0 66 66" fill="none" xmlns="http://www.w3.org/2000/svg">
<path d="M13.8659 41.7067C13.8659 45.5223 10.7486 48.6396 6.93295 48.6396C3.11732 48.6396 0 45.5223 0 41.7067C0 37.8911 3.11732 34.7738 6.93295 34.7738H13.8659V41.7067ZM17.3604 41.7067C17.3604 37.8911 20.4777 34.7738 24.2933 34.7738C28.1089 34.7738 31.2263 37.8911 31.2263 41.7067V59.0671C31.2263 62.8827 28.1089 66 24.2933 66C20.4777 66 17.3604 62.8827 17.3604 59.0671V41.7067ZM24.2933 13.8659C20.4777 13.8659 17.3604 10.7486 17.3604 6.93295C17.3604 3.11732 20.4777 0 24.2933 0C28.1089 0 31.2263 3.11732 31.2263 6.93295V13.8659H24.2933ZM24.2933 17.3604C28.1089 17.3604 31.2263 20.4777 31.2263 24.2933C31.2263 28.1089 28.1089 31.2263 24.2933 31.2263H6.93295C3.11732 31.2263 0 28.1089 0 24.2933C0 20.4777 3.11732 17.3604 6.93295 17.3604H24.2933ZM52.1341 24.2933C52.1341 20.4777 55.2514 17.3604 59.0671 17.3604C62.8827 17.3604 66 20.4777 66 24.2933C66 28.1089 62.8827 31.2263 59.0671 31.2263H52.1341V24.2933ZM48.6396 24.2933C48.6396 28.1089 45.5223 31.2263 41.7067 31.2263C37.8911 31.2263 34.7738 28.1089 34.7738 24.2933V6.93295C34.7738 3.11732 37.8911 0 41.7067 0C45.5223 0 48.6396 3.11732 48.6396 6.93295V24.2933ZM41.7067 52.1341C45.5223 52.1341 48.6396 55.2514 48.6396 59.0671C48.6396 62.8827 45.5223 66 41.7067 66C37.8911 66 34.7738 62.8827 34.7738 59.0671V52.1341H41.7067ZM41.7067 48.6396C37.8911 48.6396 34.7738 45.5223 34.7738 41.7067C34.7738 37.8911 37.8911 34.7738 41.7067 34.7738H59.0671C62.8827 34.7738 66 37.8911 66 41.7067C66 45.5223 62.8827 48.6396 59.0671 48.6396H41.7067Z" fill="#181A26"/>
</svg>
