<svg width="69" height="66" viewBox="0 0 69 66" fill="none" xmlns="http://www.w3.org/2000/svg">
<path d="M60.4355 0H8.64831C3.87317 0 0.00684608 3.69777 0.00684608 8.25C-0.0085576 8.25 0.00684608 7.66072 0.00684608 57.75C0.00684608 62.3022 3.87317 66 8.63291 66H60.4201C65.1644 65.9705 69 62.2875 69 57.75V8.25C69.0154 3.7125 65.1798 0.0294643 60.4355 0ZM30.3521 49.9862C30.3213 52.1518 28.4883 53.9049 26.2085 53.9049H13.4697C11.1899 53.9196 9.32608 52.1665 9.31067 49.9862V12.5371C9.31067 10.3567 11.1591 8.57411 13.4543 8.57411H26.2239C28.5037 8.57411 30.3675 10.342 30.3675 12.5371V49.9862H30.3521ZM60.0966 33.4862C60.0966 35.6665 58.2482 37.4491 55.953 37.4491H43.4761C41.1963 37.4491 39.3325 35.6812 39.3325 33.4862V12.5518C39.3325 10.3714 41.1809 8.58884 43.4606 8.58884H55.953C58.2328 8.58884 60.0966 10.3567 60.0966 12.5518V33.4862Z" fill="#181A26"/>
</svg>
