<svg width="24" height="34" viewBox="0 0 24 34" fill="none" xmlns="http://www.w3.org/2000/svg">
<path d="M12.0007 0C18.7394 0 24 5.63782 24 12.3018C23.5714 17.8718 21.5347 20.6735 19.0694 23.749C18.0807 24.9452 17.0949 26.3114 16.109 27.6791C15.1232 29.0453 14.466 31.0961 13.9724 32.1207C13.4802 33.1454 13.1501 34 12.0007 34C10.8484 34 10.5213 33.1454 10.0276 32.1207C9.53398 31.0961 8.87677 29.0453 7.89096 27.6791C6.90366 26.3114 5.91785 24.9452 4.93204 23.749C2.46676 20.6735 0 17.5981 0 12.3018C0 5.63782 5.25915 0 12.0007 0ZM12.0007 3.09091C7.02261 3.09091 2.97379 7.22191 2.97379 12.3018C2.97379 16.4792 4.8458 18.8128 7.21591 21.7693C8.23741 23.0087 9.2708 24.4398 10.27 25.8245C11.0105 26.8507 11.5681 28.0685 12.0007 29.0994C12.4319 28.0685 12.9895 26.8507 13.73 25.8245C14.7307 24.4398 15.7611 23.0087 16.8109 21.7368C19.1527 18.8128 21.0262 16.4792 21.0262 12.3018C21.0262 7.22191 16.9759 3.09091 12.0007 3.09091ZM12.0001 9.2888C13.6 9.2888 14.8981 10.638 14.8981 12.3009C14.8981 13.9653 13.6 15.3145 12.0001 15.3145C10.3988 15.3145 9.1007 13.9653 9.1007 12.3009C9.1007 10.638 10.3988 9.2888 12.0001 9.2888Z" fill="#E4DEE5"/>
</svg>
