<svg width="142" height="148" viewBox="0 0 142 148" fill="none" xmlns="http://www.w3.org/2000/svg">
<path d="M68.5501 140.475C35.3539 140.475 8.34668 113.467 8.34668 80.2713C8.34668 47.075 35.3539 20.0679 68.5501 20.0679C101.746 20.0679 128.753 47.075 128.753 80.2713C128.753 113.467 101.746 140.475 68.5501 140.475ZM68.5501 25.0848C38.1201 25.0848 13.3636 49.8413 13.3636 80.2713C13.3636 110.701 38.1201 135.458 68.5501 135.458C98.98 135.458 123.736 110.701 123.736 80.2713C123.736 49.8413 98.9797 25.0848 68.5501 25.0848Z" fill="#534559"/>
<path d="M71.0585 55.1864C86.2979 55.1864 98.6518 42.8325 98.6518 27.5932C98.6518 12.3539 86.2979 0 71.0585 0C55.8192 0 43.4653 12.3539 43.4653 27.5932C43.4653 42.8325 55.8192 55.1864 71.0585 55.1864Z" fill="#534559"/>
<path d="M91.1263 45.1527C91.1263 38.2259 85.5108 32.6104 78.5839 32.6104H63.5331C56.6063 32.6104 50.9907 38.2259 50.9907 45.1527V46.5302C56.0215 51.8598 63.1512 55.1866 71.0585 55.1866C78.9658 55.1866 86.0956 51.8598 91.1263 46.5302V45.1527Z" fill="#BFA8B9"/>
<path d="M71.0586 45.1527C66.9024 45.1527 63.5332 41.7835 63.5332 37.6273V32.6104H78.584V37.6273C78.584 41.7835 75.2148 45.1527 71.0586 45.1527Z" fill="#E4DEE5"/>
<path d="M71.0585 30.1016C77.9854 30.1016 83.6009 24.4862 83.6009 17.5592C83.6009 10.6323 77.9854 5.01685 71.0585 5.01685C64.1315 5.01685 58.5161 10.6323 58.5161 17.5592C58.5161 24.4862 64.1315 30.1016 71.0585 30.1016Z" fill="#FAB991"/>
<path d="M28.414 148C43.6533 148 56.0072 135.646 56.0072 120.407C56.0072 105.168 43.6533 92.8137 28.414 92.8137C13.1747 92.8137 0.820801 105.168 0.820801 120.407C0.820801 135.646 13.1747 148 28.414 148Z" fill="#534559"/>
<path d="M48.4818 137.966C48.4818 131.039 42.8662 125.424 35.9394 125.424H20.8886C13.9617 125.424 8.34619 131.039 8.34619 137.966V139.344C13.3772 144.673 20.5066 148 28.414 148C36.3213 148 43.451 144.673 48.4818 139.344V137.966Z" fill="#BFA8B9"/>
<path d="M28.4141 137.966C24.2579 137.966 20.8887 134.597 20.8887 130.441V125.424H35.9395V130.441C35.9395 134.597 32.5703 137.966 28.4141 137.966Z" fill="#E4DEE5"/>
<path d="M28.414 122.915C35.3409 122.915 40.9563 117.3 40.9563 110.373C40.9563 103.446 35.3409 97.8306 28.414 97.8306C21.487 97.8306 15.8716 103.446 15.8716 110.373C15.8716 117.3 21.487 122.915 28.414 122.915Z" fill="#FAB991"/>
<path d="M113.703 148C128.942 148 141.296 135.646 141.296 120.407C141.296 105.168 128.942 92.8137 113.703 92.8137C98.4633 92.8137 86.1094 105.168 86.1094 120.407C86.1094 135.646 98.4633 148 113.703 148Z" fill="#534559"/>
<path d="M133.77 137.966C133.77 131.039 128.155 125.424 121.228 125.424H106.177C99.2503 125.424 93.6348 131.039 93.6348 137.966V139.344C98.6655 144.673 105.795 148 113.703 148C121.61 148 128.74 144.673 133.77 139.344V137.966Z" fill="#BFA8B9"/>
<path d="M113.703 137.966C109.546 137.966 106.177 134.597 106.177 130.441V125.424H121.228V130.441C121.228 134.597 117.859 137.966 113.703 137.966Z" fill="#E4DEE5"/>
<path d="M113.703 122.915C120.629 122.915 126.245 117.3 126.245 110.373C126.245 103.446 120.629 97.8306 113.703 97.8306C106.776 97.8306 101.16 103.446 101.16 110.373C101.16 117.3 106.776 122.915 113.703 122.915Z" fill="#FAB991"/>
<path d="M68.5499 110.373H73.5669C90.1915 110.373 103.669 96.8957 103.669 80.2711C103.669 63.6465 90.1915 50.1694 73.5669 50.1694H68.5499C51.9253 50.1694 38.4482 63.6465 38.4482 80.2711C38.4482 96.8957 51.9253 110.373 68.5499 110.373Z" fill="#555A6E"/>
<path d="M68.5499 110.373C85.1746 110.373 98.6516 96.8958 98.6516 80.2711C98.6516 63.6464 85.1746 50.1694 68.5499 50.1694C51.9252 50.1694 38.4482 63.6464 38.4482 80.2711C38.4482 96.8958 51.9252 110.373 68.5499 110.373Z" fill="#A68D9D"/>
<path d="M68.5497 100.339C79.6329 100.339 88.6175 91.3543 88.6175 80.2712C88.6175 69.188 79.6329 60.2034 68.5497 60.2034C57.4666 60.2034 48.4819 69.188 48.4819 80.2712C48.4819 91.3543 57.4666 100.339 68.5497 100.339Z" fill="#E4DEE5"/>
<path d="M68.55 90.3051C74.0916 90.3051 78.5839 85.8128 78.5839 80.2712C78.5839 74.7296 74.0916 70.2373 68.55 70.2373C63.0084 70.2373 58.5161 74.7296 58.5161 80.2712C58.5161 85.8128 63.0084 90.3051 68.55 90.3051Z" fill="#A68D9D"/>
<path d="M68.55 75.2542H25.906L22.3784 69.9629C21.4481 68.5669 19.8816 67.7288 18.204 67.7288H4.84891C0.983032 67.7288 -1.32288 72.0374 0.82155 75.2542V80.2711H20.8743H73.5673C73.567 77.5005 71.321 75.2542 68.55 75.2542Z" fill="#555A6E"/>
<path d="M20.8738 80.2712H0.821061V85.2882C-1.32337 88.505 0.982545 92.8136 4.84842 92.8136H18.2038C19.8814 92.8136 21.4476 91.9752 22.3783 90.5795L25.9058 85.2882H68.5499C71.3208 85.2882 73.5668 83.0419 73.5668 80.2712H20.8738Z" fill="#463C4B"/>
</svg>
