<svg width="102" height="90" viewBox="0 0 102 90" fill="none" xmlns="http://www.w3.org/2000/svg">
<path d="M57.0485 69.375H54.0243C52.3539 69.375 51 68.056 51 66.4286C51 64.8013 52.3539 63.4822 54.0243 63.4822H57.0485C58.7189 63.4822 60.0728 64.8013 60.0728 66.4286C60.0728 68.056 58.7189 69.375 57.0485 69.375Z" fill="#BFA8B9"/>
<path d="M90.3152 69.375H69.1454C67.475 69.375 66.1211 68.056 66.1211 66.4286C66.1211 64.8013 67.475 63.4822 69.1454 63.4822H90.3152C91.9855 63.4822 93.3394 64.8013 93.3394 66.4286C93.3394 68.056 91.9855 69.375 90.3152 69.375Z" fill="#BFA8B9"/>
<path d="M57.0485 79.6876H54.0243C52.3539 79.6876 51 78.3685 51 76.7411C51 75.1138 52.3539 73.7947 54.0243 73.7947H57.0485C58.7189 73.7947 60.0728 75.1138 60.0728 76.7411C60.0728 78.3685 58.7189 79.6876 57.0485 79.6876Z" fill="#BFA8B9"/>
<path d="M72.1696 79.6876H69.1453C67.475 79.6876 66.1211 78.3685 66.1211 76.7411C66.1211 75.1138 67.475 73.7947 69.1453 73.7947H72.1696C73.8399 73.7947 75.1939 75.1138 75.1939 76.7411C75.1939 78.3685 73.8399 79.6876 72.1696 79.6876Z" fill="#BFA8B9"/>
<path d="M57.0485 90H54.0243C52.3539 90 51 88.681 51 87.0536C51 85.4263 52.3539 84.1072 54.0243 84.1072H57.0485C58.7189 84.1072 60.0728 85.4263 60.0728 87.0536C60.0728 88.681 58.7189 90 57.0485 90Z" fill="#BFA8B9"/>
<path d="M81.2424 90H69.1454C67.475 90 66.1211 88.681 66.1211 87.0536C66.1211 85.4263 67.475 84.1072 69.1454 84.1072H81.2424C82.9127 84.1072 84.2666 85.4263 84.2666 87.0536C84.2666 88.681 82.9127 90 81.2424 90Z" fill="#BFA8B9"/>
<path d="M72.17 58.125C88.6448 58.125 102 45.1133 102 29.0625C102 13.0117 88.6448 0 72.17 0C55.6953 0 42.3398 13.0117 42.3398 29.0625C42.3398 45.1133 55.6953 58.125 72.17 58.125Z" fill="#534559"/>
<path d="M79.0539 29.0625H65.2861C58.9498 29.0625 53.813 34.0671 53.813 40.2404V51.971C58.8749 55.8265 65.2468 58.125 72.17 58.125C79.0932 58.125 85.4651 55.8265 90.5271 51.971V40.2404C90.5271 34.0671 85.3902 29.0625 79.0539 29.0625Z" fill="#A68D9D"/>
<path d="M72.17 40.2404C68.3681 40.2404 65.2861 37.2377 65.2861 33.5337V29.0625H79.0539V33.5337C79.0539 37.2377 75.9719 40.2404 72.17 40.2404Z" fill="#E4DEE5"/>
<path d="M72.1699 26.827C78.5064 26.827 83.6431 21.8225 83.6431 15.6491C83.6431 9.4757 78.5064 4.47119 72.1699 4.47119C65.8335 4.47119 60.6968 9.4757 60.6968 15.6491C60.6968 21.8225 65.8335 26.827 72.1699 26.827Z" fill="#FAB991"/>
<path d="M30.7924 90C32.9182 90 34.6415 88.3211 34.6415 86.25C34.6415 84.1789 32.9182 82.5 30.7924 82.5C28.6666 82.5 26.9434 84.1789 26.9434 86.25C26.9434 88.3211 28.6666 90 30.7924 90Z" fill="#E4DEE5"/>
<path d="M30.7925 82.5V90C32.9184 90 34.6415 88.3212 34.6415 86.25C34.6415 84.1788 32.9184 82.5 30.7925 82.5Z" fill="#BFA8B9"/>
<path d="M34.6415 60H26.9434C12.0629 60 0 48.2475 0 33.75C0 19.2525 12.0629 7.5 26.9434 7.5H34.6415C49.522 7.5 61.5849 19.2525 61.5849 33.75C61.5849 48.2475 49.522 60 34.6415 60Z" fill="#534559"/>
<path d="M26.9434 60C41.8238 60 53.8868 48.2475 53.8868 33.75C53.8868 19.2525 41.8238 7.5 26.9434 7.5C12.063 7.5 0 19.2525 0 33.75C0 48.2475 12.063 60 26.9434 60Z" fill="#A68D9D"/>
<path d="M26.9435 51.8748C37.2181 51.8748 45.5472 43.76 45.5472 33.7499C45.5472 23.7398 37.2181 15.625 26.9435 15.625C16.669 15.625 8.33984 23.7398 8.33984 33.7499C8.33984 43.76 16.669 51.8748 26.9435 51.8748Z" fill="#E4DEE5"/>
<path d="M19.2451 30C21.3708 30 23.0941 28.3211 23.0941 26.25C23.0941 24.1789 21.3708 22.5 19.2451 22.5C17.1193 22.5 15.396 24.1789 15.396 26.25C15.396 28.3211 17.1193 30 19.2451 30Z" fill="white"/>
<path d="M26.9434 60H34.6415V63.75H26.9434V60Z" fill="#E4DEE5"/>
<path d="M26.9434 60V61.875H28.8679C29.9307 61.875 30.7924 62.7145 30.7924 63.75H34.6415V60H26.9434Z" fill="#BFA8B9"/>
<path d="M34.6417 86.25H26.9436C25.8808 86.25 25.019 85.4105 25.019 84.375V65.625C25.019 64.5895 25.8808 63.75 26.9436 63.75H34.6417C35.7045 63.75 36.5662 64.5895 36.5662 65.625V84.375C36.5662 85.4105 35.7045 86.25 34.6417 86.25Z" fill="#A68D9D"/>
<path d="M34.6415 86.25H30.7925V63.75H34.6415C35.7044 63.75 36.5661 64.5895 36.5661 65.625V84.375C36.5661 85.4105 35.7044 86.25 34.6415 86.25Z" fill="#534559"/>
</svg>
